<svg id="Barra_linha_do_tempo" data-name="Barra_linha do tempo" xmlns="http://www.w3.org/2000/svg" width="1147" height="70" viewBox="0 0 1147 70">
  <circle id="Elipse_3" data-name="Elipse 3" cx="35" cy="35" r="35" fill="#eaeaea"/>
  <circle id="Elipse_4" data-name="Elipse 4" cx="35" cy="35" r="35" transform="translate(1077)" fill="#eaeaea"/>
  <g id="Grupo_2828" data-name="Grupo 2828" transform="translate(55 15) rotate(90)">
    <g id="noun-arrow-2094744" transform="translate(9.97 14.474)">
      <path id="Caminho_3585" data-name="Caminho 3585" d="M.173,19.18a.549.549,0,0,0,.387.162.53.53,0,0,0,.387-.162l9.116-9.116a.543.543,0,0,0,0-.773L.947.173A.547.547,0,1,0,.173.947L8.9,9.678.173,18.407a.545.545,0,0,0,0,.773Z" transform="translate(19.343 0) rotate(90)" fill="#025884"/>
    </g>
  </g>
  <g id="Grupo_2832" data-name="Grupo 2832" transform="translate(1117.525 24.97) rotate(90)">
    <g id="noun-arrow-2094744-2" data-name="noun-arrow-2094744" transform="translate(0 0)">
      <path id="Caminho_3585-2" data-name="Caminho 3585" d="M.173.162A.549.549,0,0,1,.56,0,.53.53,0,0,1,.946.162l9.116,9.116a.543.543,0,0,1,0,.773L.946,19.169A.547.547,0,1,1,.173,18.4L8.9,9.665.173.936a.545.545,0,0,1,0-.773Z" transform="translate(0 10.224) rotate(-90)" fill="#025884"/>
    </g>
  </g>
</svg>
