<svg xmlns="http://www.w3.org/2000/svg" width="1506.598" height="1347.185" viewBox="0 0 1506.598 1347.185">
  <g id="Eco_energy" data-name="Eco energy" transform="translate(-1953.028 -1628.889)">
    <g id="Backgroun" transform="translate(1953.028 1628.889)">
      <path id="Path_947" data-name="Path 947" d="M3102.891,2400.28c21.085-39.921,44.117-78.77,75.475-114.746,64.138-73.582,119.216-138.7,108.691-243.052-14.45-143.262-133.794-246.886-250.114-316C2876.25,1631,2679.307,1601.2,2499.625,1656.665c-145.749,44.992-402.615,193.4-247.556,369.136,99.772,113.076-232.8,0-239.455,113.076s239.455,113.075,166.288,172.939-279.364,86.47-212.848,192.894,286.016,19.954,272.713,99.773-152.986,59.863-139.682,139.684c19.2,115.17,365.955,107.408,438.845,101.152,207.935-17.849,383-132.476,492.131-308.857C3057.926,2491.419,3079.178,2445.17,3102.891,2400.28Z" transform="translate(-1953.028 -1628.889)" fill="#aee7f4"/>
      <path id="Path_948" data-name="Path 948" d="M2070.869,1848.911h169.944c37.552,0,51.828-50.293,19.163-68.821a39.706,39.706,0,0,0-15.823-4.937,36.476,36.476,0,0,1-29.355-20.98c-5.7-12.082-17.946-24.261-44.136-24.637-23.575-.339-36.112,7.819-42.774,16.891a36.171,36.171,0,0,1-34.245,14.117c-13.636-1.964-30.239.13-44.178,15.134a59.2,59.2,0,0,0-15.168,30.034C2030.146,1828.256,2047.948,1848.911,2070.869,1848.911Z" transform="translate(-1876.404 -1445.162)" fill="#d5f2f7"/>
      <path id="Path_949" data-name="Path 949" d="M2265.959,1729.564H2394.27c28.353,0,39.13-37.974,14.468-51.961a29.994,29.994,0,0,0-11.947-3.727,27.543,27.543,0,0,1-22.164-15.841c-4.3-9.124-13.549-18.318-33.323-18.6-17.8-.257-27.264,5.9-32.294,12.755a27.314,27.314,0,0,1-25.855,10.658c-10.3-1.483-22.834.1-33.357,11.424a44.725,44.725,0,0,0-11.452,22.678C2235.21,1713.969,2248.652,1729.564,2265.959,1729.564Z" transform="translate(-1481.012 -1572.917)" fill="#fff"/>
      <path id="Path_950" data-name="Path 950" d="M2451.552,1895.394h167.594c37.036,0,51.11-49.6,18.9-67.866a39.137,39.137,0,0,0-15.606-4.872,35.98,35.98,0,0,1-28.948-20.689c-5.62-11.915-17.7-23.924-43.526-24.3-23.247-.333-35.612,7.711-42.178,16.66a35.674,35.674,0,0,1-33.772,13.922c-13.45-1.939-29.822.127-43.569,14.925a58.376,58.376,0,0,0-14.958,29.618C2411.391,1875.027,2428.947,1895.394,2451.552,1895.394Z" transform="translate(-1149.399 -1433.579)" fill="#d5f2f7"/>
    </g>
    <g id="Earth" transform="translate(2230.086 2432.148)">
      <g id="Group_577" data-name="Group 577">
        <path id="Path_951" data-name="Path 951" d="M3144.134,1914.131c-.065,298.909-244.745,541.2-546.527,541.2-301.214,0-545.521-241.334-546.527-539.42Z" transform="translate(-2051.08 -1911.403)" fill="#70c4de"/>
        <g id="Group_576" data-name="Group 576" transform="translate(85.296)">
          <path id="Path_952" data-name="Path 952" d="M2521.3,2406.552c63.229,7.948,113.52-50.52,97.363-112.164a148.666,148.666,0,0,1-3.9-56.56c12.444-99.284-109.883-190.53-174.044-179.419-24.787,4.292-47.917,9.536-73.495,8.158-59.934-3.23-92.194-41.59-134.813-77.6-29.676-25.072-59.878-49.539-89.807-74.3l-60.986.1c-.822,11.771-4.188,90.047,48.742,120.247,57.19,32.63,62.169,94.215,62.186,94.446,4.433,55.4-12.173,100.581,32.644,145.822,33.187,33.5,73.056,59.813,115.571,79.966C2397.571,2382.172,2458.819,2398.7,2521.3,2406.552Z" transform="translate(-2081.267 -1910.424)" fill="#88b72c"/>
          <path id="Path_953" data-name="Path 953" d="M2473.346,1963.288c3.81-5.493,7.025-10.684,9.464-14.114,8.347-11.735,9.138-20.783,12.509-33.976-31.475.051-67.762-5-98.411.628a53.822,53.822,0,0,1,5.066,8.765c4.332,9.675,20.195,62.362,33.45,62.362C2449.934,1993.4,2463.59,1977.354,2473.346,1963.288Z" transform="translate(-1505.024 -1913.166)" fill="#88b72c"/>
          <path id="Path_954" data-name="Path 954" d="M2639.045,2125.416a311.344,311.344,0,0,1,14.7-28.449c7.437-13.02,64.9-91.753,46.406-102.4a3.25,3.25,0,0,0-1.738-.362c-26.643.776-50.523-16.691-62.048-40.723-7.415-15.457-14.422-30.215-18.556-39.279,0,0-319.366.52-320.194.52-14.53.025-25.112,29.581-28.412,40.161-6.018,19.287-7.519,39.68-8.937,59.722-1.944,27.462.022,48.052,20.073,68.792,10.91,11.283,24.06,20.1,37.1,28.827,6.824,4.563,14.06,9.276,22.249,9.861,7.745.554,15.188-2.667,22.438-5.448,35.414-13.577,78.386-26,90.8,20.079,3.422,12.707,11.252,23.919,14.383,36.7,4.182,17.078-.412,34.9-4.131,52.093a523.625,523.625,0,0,0-9.87,65.289c-1.661,19.045-5.106,41.627-1.89,60.482,1.958,11.467,54.125-18.843,58.261-21.85,23.654-17.185,45.852-40.692,65.843-62.056,19.469-20.8,36.733-44.416,45.586-71.5,5.708-17.463,6.075-36.151,11.549-53.639A160.642,160.642,0,0,1,2639.045,2125.416Z" transform="translate(-1755.562 -1911.266)" fill="#88b72c"/>
        </g>
      </g>
      <path id="Path_955" data-name="Path 955" d="M2139.333,2368.37a547.765,547.765,0,0,0,297.157,86.959c301.782,0,546.462-242.289,546.527-541.2l-216.288.35C2747.266,2036.119,2647.634,2365.414,2139.333,2368.37Z" transform="translate(-1889.963 -1911.403)" fill="#42abbc" opacity="0.5"/>
    </g>
    <g id="House" transform="translate(2810.683 1941.056)">
      <g id="Group_578" data-name="Group 578">
        <path id="Rectangle_48" data-name="Rectangle 48" d="M4,0H141.591a4,4,0,0,1,4,4V497.293a0,0,0,0,1,0,0H0a0,0,0,0,1,0,0V4A4,4,0,0,1,4,0Z" fill="#1e997a"/>
        <rect id="Rectangle_49" data-name="Rectangle 49" width="108.964" height="158.626" transform="translate(18.313 338.667)" fill="#aeb72a"/>
      </g>
      <rect id="Rectangle_50" data-name="Rectangle 50" width="110.429" height="251.916" rx="4" transform="translate(17.069 48.062)" fill="#b3d465"/>
      <rect id="Rectangle_51" data-name="Rectangle 51" width="110.429" height="41.299" rx="4" transform="translate(17.069 48.062)" fill="#61d1af"/>
      <path id="Path_956" data-name="Path 956" d="M2305.152,1758.723s-33.62,2.054-27.132,24.9c2.933-5.462,9.564-15.752,19.7-20.051,0,0-10.079,5.51-16.275,19.952l0,.006-.014.036a8.1,8.1,0,0,1-1.625,2.267c1.217-.1,3.077.025,4.111-.048C2302.88,1784.306,2296.731,1765.05,2305.152,1758.723Z" transform="translate(-2218.887 -1704.028)" fill="#fff"/>
      <path id="Path_957" data-name="Path 957" d="M2373.025,1901.957v60.127a6.816,6.816,0,0,1-6.815,6.816h-66.134a11.3,11.3,0,0,1,1.607-1.84Zm-52.921-27.03h0a11.4,11.4,0,0,0-16.061-.735l-41.446,37.821V1942.8l56.773-51.808A11.4,11.4,0,0,0,2320.1,1874.928Zm24.419-34.094a11.368,11.368,0,0,0,15.325,16.8l13.176-12.021v-30.785Zm-73.443,26.094a11.4,11.4,0,0,0,16.063.735l76.663-69.957a11.37,11.37,0,0,0-15.327-16.8l-76.665,69.959A11.4,11.4,0,0,0,2271.08,1866.928Z" transform="translate(-2245.527 -1668.923)" fill="#defc8d"/>
    </g>
    <g id="House-2" data-name="House" transform="translate(2457.865 2010.476)">
      <path id="Path_958" data-name="Path 958" d="M2428.721,1887.85v2.122l-125.088-31.724-104.294-26.473v-8.118a65.774,65.774,0,0,0-32.585-56.535l205.2,55.56,15.575,4.216A66.1,66.1,0,0,1,2428.721,1887.85Z" transform="translate(-2067.682 -1758.114)" fill="#2a5b61"/>
      <path id="Path_959" data-name="Path 959" d="M2263.349,1829.477V1884H2131.692v-54.526a65.829,65.829,0,0,1,131.657,0Z" transform="translate(-2131.692 -1763.934)" fill="#ec8304"/>
      <path id="Path_960" data-name="Path 960" d="M2254.951,1791l-15.575-4.216A65.292,65.292,0,0,1,2254.951,1791Z" transform="translate(-1935.101 -1722.216)" fill="#2a5b61"/>
      <rect id="Rectangle_52" data-name="Rectangle 52" width="131.644" height="354.209" transform="translate(0.006 73.654)" fill="#ec8304"/>
      <path id="Path_961" data-name="Path 961" d="M2407.667,1848.21,2178.283,1790v354.209h228.09Z" transform="translate(-2046.633 -1716.347)" fill="#2a5b61"/>
      <path id="Rectangle_53" data-name="Rectangle 53" d="M4,0H34.851a4,4,0,0,1,4,4V66.233a0,0,0,0,1,0,0H0a0,0,0,0,1,0,0V4A4,4,0,0,1,4,0Z" transform="translate(17.344 361.63)" fill="#31919b"/>
      <path id="Path_962" data-name="Path 962" d="M2212.9,1776.558c.52,9.968-.178,36.041-21.584,36.888a1.38,1.38,0,0,1-.972-2.4,76.648,76.648,0,0,0,6.292-6.312,1.378,1.378,0,0,0-1.947-1.947,65.074,65.074,0,0,1-7.767,6.191l-.006,0-.045.031c-.025.016-.328.242-.726.593a1.376,1.376,0,0,1-2.252-.763c-.189-.915-.375-1.8-.452-2.447-2.549-22.246,18.722-21.726,27.075-30.678A1.371,1.371,0,0,1,2212.9,1776.558Zm-55.933,7.858c4.442,8.35.138,23.628,17.066,26.372,1.04.161,2.933.192,4.154.392a8.139,8.139,0,0,1-1.453-2.427l-.011-.039,0-.006c-.227-.675-.461-1.331-.7-1.972a1.378,1.378,0,0,1,2.512-1.125l.11.215a1.38,1.38,0,0,0,2.585-.4c2.888-15.179-14.854-21.155-22.746-23.043A1.383,1.383,0,0,0,2156.972,1784.416Zm-18.061,265.019h17.765a1.378,1.378,0,0,0,1.378-1.376v-15.3a1.378,1.378,0,0,0-1.378-1.376H2138.91a1.376,1.376,0,0,0-1.377,1.376v15.3A1.376,1.376,0,0,0,2138.91,2049.434Zm0,22.718h17.765a1.379,1.379,0,0,0,1.378-1.379v-15.3a1.381,1.381,0,0,0-1.378-1.379H2138.91a1.379,1.379,0,0,0-1.377,1.379v15.3A1.377,1.377,0,0,0,2138.91,2072.152Zm0-45.43h17.765a1.38,1.38,0,0,0,1.378-1.379v-15.3a1.378,1.378,0,0,0-1.378-1.376H2138.91a1.376,1.376,0,0,0-1.377,1.376v15.3A1.378,1.378,0,0,0,2138.91,2026.721Zm24.165,22.713h17.765a1.376,1.376,0,0,0,1.375-1.376v-15.3a1.376,1.376,0,0,0-1.375-1.376h-17.765a1.379,1.379,0,0,0-1.379,1.376v15.3A1.379,1.379,0,0,0,2163.075,2049.434Zm0,22.718h17.765a1.376,1.376,0,0,0,1.375-1.379v-15.3a1.378,1.378,0,0,0-1.375-1.379h-17.765a1.381,1.381,0,0,0-1.379,1.379v15.3A1.379,1.379,0,0,0,2163.075,2072.152Zm0-45.43h17.765a1.378,1.378,0,0,0,1.375-1.379v-15.3a1.376,1.376,0,0,0-1.375-1.376h-17.765a1.379,1.379,0,0,0-1.379,1.376v15.3A1.381,1.381,0,0,0,2163.075,2026.721Zm24.165,22.713H2205a1.377,1.377,0,0,0,1.379-1.376v-15.3a1.377,1.377,0,0,0-1.379-1.376H2187.24a1.377,1.377,0,0,0-1.379,1.376v15.3A1.377,1.377,0,0,0,2187.24,2049.434Zm0,22.718H2205a1.377,1.377,0,0,0,1.379-1.379v-15.3A1.379,1.379,0,0,0,2205,2054.1H2187.24a1.379,1.379,0,0,0-1.379,1.379v15.3A1.377,1.377,0,0,0,2187.24,2072.152Zm0-45.43H2205a1.379,1.379,0,0,0,1.379-1.379v-15.3a1.377,1.377,0,0,0-1.379-1.376H2187.24a1.377,1.377,0,0,0-1.379,1.376v15.3A1.379,1.379,0,0,0,2187.24,2026.721Zm24.162,22.713h17.765a1.378,1.378,0,0,0,1.379-1.376v-15.3a1.378,1.378,0,0,0-1.379-1.376H2211.4a1.376,1.376,0,0,0-1.376,1.376v15.3A1.376,1.376,0,0,0,2211.4,2049.434Zm0,22.718h17.765a1.378,1.378,0,0,0,1.379-1.379v-15.3a1.38,1.38,0,0,0-1.379-1.379H2211.4a1.379,1.379,0,0,0-1.376,1.379v15.3A1.377,1.377,0,0,0,2211.4,2072.152Zm0-45.43h17.765a1.38,1.38,0,0,0,1.379-1.379v-15.3a1.378,1.378,0,0,0-1.379-1.376H2211.4a1.376,1.376,0,0,0-1.376,1.376v15.3A1.378,1.378,0,0,0,2211.4,2026.721Z" transform="translate(-2121.026 -1743.246)" fill="#e7ffff"/>
      <path id="Path_963" data-name="Path 963" d="M2223.546,1875.839v128.142H2185.97V1872.364a5.547,5.547,0,0,1,6.267-5.5l26.485,3.478A5.543,5.543,0,0,1,2223.546,1875.839Z" transform="translate(-2032.601 -1576.108)" fill="#31919b"/>
      <path id="Path_964" data-name="Path 964" d="M2250.253,1879.354V1997.57h-37.575V1875.876a5.547,5.547,0,0,1,6.267-5.5l26.485,3.478A5.545,5.545,0,0,1,2250.253,1879.354Z" transform="translate(-1983.842 -1569.697)" fill="#31919b"/>
      <path id="Path_965" data-name="Path 965" d="M2277.122,1878.029v113.127h-37.776V1879.389a5.542,5.542,0,0,1,6.265-5.5l31.311,4.111Z" transform="translate(-1935.156 -1563.283)" fill="#31919b"/>
      <rect id="Rectangle_54" data-name="Rectangle 54" width="54.241" height="30.502" rx="4" transform="translate(67.767 363.866)" fill="#31919b"/>
      <g id="Group_580" data-name="Group 580" transform="translate(18.649 96.036)">
        <rect id="Rectangle_55" data-name="Rectangle 55" width="95.638" height="143.622" rx="4" transform="translate(0.001)" fill="#c9f3f3"/>
        <path id="Path_966" data-name="Path 966" d="M2138.357,1853.341a.71.71,0,0,1-.065.048v-23.928l34.51-31.539h22.758a8.768,8.768,0,0,1-2.792,5.688Zm82.051,6.765,13.523-12.362v-23.936l-25.445,23.255a8.835,8.835,0,1,0,11.921,13.043Zm-39.341,8.649a8.861,8.861,0,0,0-12.481-.559l-30.294,27.688v23.936l42.212-38.584A8.859,8.859,0,0,0,2181.066,1868.755Zm52.865,65.97V1889.7l-48.38,44.221a8.824,8.824,0,0,0-2.781,7.621h44.343A6.816,6.816,0,0,0,2233.931,1934.725Z" transform="translate(-2138.292 -1797.921)" fill="#e7ffff"/>
      </g>
      <g id="Group_581" data-name="Group 581" transform="translate(153.55 106.631)">
        <path id="Path_967" data-name="Path 967" d="M2194.457,1801.867l174.751,42.345a6.819,6.819,0,0,1,5.21,6.657l-.463,102.081a6.819,6.819,0,0,1-7.7,6.728l-174.288-22.766a6.819,6.819,0,0,1-5.934-6.762V1808.49A6.817,6.817,0,0,1,2194.457,1801.867Z" transform="translate(-2186.034 -1801.67)" fill="#31919b"/>
        <path id="Path_968" data-name="Path 968" d="M2343.306,1881.966l4.595,5.069a10.422,10.422,0,0,1-.721,14.682L2293.7,1950.2l-35.958-4.7,70.887-64.257A10.423,10.423,0,0,1,2343.306,1881.966Zm-82.927,13.119a10.14,10.14,0,0,0,.7-14.278h0a10.138,10.138,0,0,0-14.278-.7l-59.511,53.944a6.775,6.775,0,0,0,4.676,2.857l19.463,2.543Zm113.752,19.157-44.8,40.613,36.928,4.823a6.819,6.819,0,0,0,7.7-6.728Zm-179.674-112.378a6.82,6.82,0,0,0-8.423,6.626v43.1l45.06-40.844Zm79.42,54.961a10.108,10.108,0,1,0,13.577,14.978l41.263-37.4-14.874-3.6-8.875-2.15Zm100.542-5.957a6.785,6.785,0,0,0-1.744-4.552l-18.213,16.513a10.107,10.107,0,1,0,13.577,14.975l6.284-5.7.065-14.52Z" transform="translate(-2186.034 -1801.671)" fill="#70c4de"/>
      </g>
    </g>
    <g id="Windmill" transform="translate(2972.372 2048.94)">
      <g id="Group_583" data-name="Group 583" transform="translate(53.481 176.284)">
        <path id="Path_969" data-name="Path 969" d="M2438.126,1863.769h-.014l-80.092-18.992c-2.25,11.043-7.344,28.92-18.951,54.371a71.263,71.263,0,0,0-6.363,29.581v115.483l57.73,0,33.543,0s11.93,0,34.39,0V1912.509C2448.381,1892.365,2442.111,1876.241,2438.126,1863.769Z" transform="translate(-2332.705 -1831.09)" fill="#1e997a"/>
        <path id="Path_970" data-name="Path 970" d="M2404.443,1872.613c-7.092-22.193-6.863-32.679-6.863-32.679h-3.372a24.631,24.631,0,0,0-23.521,32.017q.107.327.212.661a309.749,309.749,0,0,0,11.521,30.1,104,104,0,0,1,8.722,41.777V2053.06h33.543V1936.265a66.061,66.061,0,0,0-6-27.5A323.556,323.556,0,0,1,2404.443,1872.613Z" transform="translate(-2265.479 -1839.934)" fill="#2a5b61"/>
      </g>
      <g id="Group_584" data-name="Group 584" transform="translate(90.615 301.849)">
        <path id="Path_971" data-name="Path 971" d="M2382.422,1888.52a20.556,20.556,0,0,0-12.19-4.148c-13.467,0-24.385,13.763-24.385,30.743v56.03h24.385v-56.03C2370.232,1903.742,2375.143,1893.838,2382.422,1888.52Z" transform="translate(-2345.847 -1884.372)" fill="#58bad1"/>
        <path id="Path_972" data-name="Path 972" d="M2366.667,1885.84c-7.279,5.318-12.19,15.222-12.19,26.595v56.03h24.382v-56.03C2378.859,1901.062,2373.948,1891.158,2366.667,1885.84Z" transform="translate(-2330.091 -1881.692)" fill="#2a5b61"/>
      </g>
      <path id="Path_973" data-name="Path 973" d="M2366.486,1803.68a54.614,54.614,0,0,0-9.8.927,54.529,54.529,0,0,1,44.74,53.621v29.113h19.614v-29.113A54.548,54.548,0,0,0,2366.486,1803.68Z" transform="translate(-2235.454 -1729.836)" fill="#2a5b61"/>
      <path id="Path_974" data-name="Path 974" d="M2438.618,1898.231l-8.288-40.6a45.478,45.478,0,1,0-89.485,0v29.113l4.1,18.779s.084,4.487-1.792,13.687l80.092,18.992h.014C2441.633,1923.2,2438.618,1898.231,2438.618,1898.231Z" transform="translate(-2264.362 -1729.238)" fill="#35696d"/>
      <g id="Group_585" data-name="Group 585" transform="translate(95.988 96.006)">
        <path id="Path_975" data-name="Path 975" d="M2360.631,1811.762a22.576,22.576,0,0,0-5.651-.116c.387.036.774.057,1.165.116a22.693,22.693,0,0,1-1.1,45.023,22.691,22.691,0,0,0,5.586-45.023Z" transform="translate(-2334.546 -1811.523)" fill="#b14225"/>
        <path id="Path_976" data-name="Path 976" d="M2388.425,1837.512a22.706,22.706,0,0,0-19.079-25.83c-.39-.059-.778-.079-1.165-.116a22.693,22.693,0,0,0-1.1,45.023c.39.06.777.076,1.164.116A22.7,22.7,0,0,0,2388.425,1837.512Z" transform="translate(-2347.749 -1811.443)" fill="#ec8304"/>
      </g>
      <g id="Group_591" data-name="Group 591">
        <g id="Group_586" data-name="Group 586" transform="translate(140.851 126.182)">
          <path id="Path_977" data-name="Path 977" d="M2389.979,1826.855l-3.437-4.653-22.917,16.929,65.748,89,4.512-3.333-62.288-84.395Z" transform="translate(-2363.626 -1822.203)" fill="#2a5b61"/>
          <path id="Path_978" data-name="Path 978" d="M2384.828,1823.849l-18.381,13.554,62.288,84.393,12.921-9.545a6.815,6.815,0,0,0,1.433-9.534Z" transform="translate(-2358.475 -1819.198)" fill="#ec8304"/>
        </g>
        <g id="Group_587" data-name="Group 587" transform="translate(126.749 9.682)">
          <path id="Path_979" data-name="Path 979" d="M2432.937,1784.428l4.639-3.455,17.021,22.848-88.736,66.109-3.352-4.5,84.089-62.7Z" transform="translate(-2351.561 -1780.973)" fill="#2a5b61"/>
          <path id="Path_980" data-name="Path 980" d="M2440.013,1782.2l13.659,18.3-84.088,62.7-9.6-12.882a6.816,6.816,0,0,1,1.4-9.539Z" transform="translate(-2358.635 -1778.74)" fill="#ec8304"/>
        </g>
        <g id="Group_588" data-name="Group 588" transform="translate(8.458 4.701)">
          <path id="Path_981" data-name="Path 981" d="M2320.219,1800.839l-3.448-4.644,22.876-16.985,65.963,88.844-4.5,3.344-62.564-84.19Z" transform="translate(-2316.771 -1779.21)" fill="#2a5b61"/>
          <path id="Path_982" data-name="Path 982" d="M2317.992,1795.672l18.324-13.631,62.562,84.19-12.9,9.575a6.816,6.816,0,0,1-9.536-1.407Z" transform="translate(-2314.543 -1774.042)" fill="#ec8304"/>
        </g>
        <g id="Group_589" data-name="Group 589" transform="translate(9.187 137.316)">
          <path id="Path_983" data-name="Path 983" d="M2418.249,1852.479l4.647-3.444-16.964-22.891-88.9,65.885,3.34,4.507,84.3-62.418Z" transform="translate(-2317.029 -1826.143)" fill="#2a5b61"/>
          <path id="Path_984" data-name="Path 984" d="M2416.091,1847.326l-13.58-18.361-84.3,62.418,9.567,12.907a6.814,6.814,0,0,0,9.533,1.418Z" transform="translate(-2314.872 -1820.992)" fill="#ec8304"/>
        </g>
        <path id="Path_985" data-name="Path 985" d="M2437.108,1896.942l112.723-83.268a3.313,3.313,0,0,0-3.939-5.329l-112.72,83.268-83.265-112.722a3.315,3.315,0,0,0-5.332,3.939l83.269,112.72-112.72,83.268a3.313,3.313,0,0,0,3.936,5.329l112.72-83.269,83.268,112.72a3.313,3.313,0,1,0,5.329-3.936Z" transform="translate(-2313.778 -1777.546)" fill="#fff"/>
        <g id="Group_590" data-name="Group 590" transform="translate(104.022 107.279)">
          <circle id="Ellipse_150" data-name="Ellipse 150" cx="8.614" cy="8.614" r="8.614" transform="translate(0 10.236) rotate(-36.453)" fill="#b14225"/>
        </g>
      </g>
    </g>
    <g id="Plants" transform="translate(2160.059 2242.901)">
      <g id="Plant" transform="translate(125.399 18.932)">
        <path id="Path_986" data-name="Path 986" d="M2495.59,2017.612a58.009,58.009,0,0,1-1.2,11.794h-412.1a94.079,94.079,0,0,1-11.61-45.478c0-50.506,39.222-91.451,87.6-91.451a85.061,85.061,0,0,1,55.643,20.8c18.982-35.979,55.642-60.386,97.8-60.386,60.505,0,109.612,50.341,111.392,113.019a51.946,51.946,0,0,1,19.349-3.823C2471.8,1962.086,2495.59,1986.929,2495.59,2017.612Z" transform="translate(-2070.676 -1852.89)" fill="#81a317"/>
      </g>
      <g id="Plant-2" data-name="Plant" transform="translate(0 0)">
        <g id="Group_601" data-name="Group 601">
          <g id="Group_598" data-name="Group 598" transform="translate(89.112)">
            <g id="Group_596" data-name="Group 596" transform="translate(5.213)">
              <g id="Group_594" data-name="Group 594" transform="translate(0)">
                <ellipse id="Ellipse_151" data-name="Ellipse 151" cx="96.684" cy="19.727" rx="96.684" ry="19.727" transform="translate(0 187.245) rotate(-75.544)" fill="#aeb72a"/>
              </g>
              <g id="Group_595" data-name="Group 595" transform="translate(15.357 51.028)" opacity="0.33">
                <path id="Path_987" data-name="Path 987" d="M2066.055,2000.767a1.2,1.2,0,0,0,1.277-.563,113.918,113.918,0,0,0,5.765-11.472c8.68-1.829,21.4-24.289,22.873-26.937a1.191,1.191,0,1,0-2.082-1.159c-3.518,6.321-13.06,21.588-19.5,25.1,5.787-13.725,12.054-32.834,18.731-57.132,4.349-.435,8.906-5.03,13.563-13.673a102.662,102.662,0,0,0,5.869-13.187,1.192,1.192,0,1,0-2.249-.789c-2.317,6.589-9.525,23.069-16.485,25.094q.78-2.865,1.565-5.823c7.72-29.033,13.1-54.286,13.15-54.538a1.2,1.2,0,0,0-.918-1.416h0a1.191,1.191,0,0,0-1.413.918c-.088.422-3.845,18.014-9.6,40.777-3.742-6.321-2-29.036-.922-37.841a1.192,1.192,0,1,0-2.367-.288c-.438,3.589-4.078,35.154,2.565,40.979-4.289,16.785-9.593,36.022-15.272,53.156-2.882-3.959-4.2-12.207-3.808-24.007a167.934,167.934,0,0,1,1.754-18.762,1.176,1.176,0,0,0-.986-1.368,1.2,1.2,0,0,0-1.368.986c-.238,1.472-5.744,36.177,3.428,45.69a.973.973,0,0,0,.1.091c-2.726,8.062-5.532,15.589-8.35,22.091a1.19,1.19,0,0,0-.486.983.772.772,0,0,0,.008.114,111.533,111.533,0,0,1-5.614,11.2,1.193,1.193,0,0,0,.423,1.633A1.255,1.255,0,0,0,2066.055,2000.767Z" transform="translate(-2065.114 -1864.249)" fill="#fff"/>
              </g>
            </g>
            <ellipse id="Ellipse_152" data-name="Ellipse 152" cx="16.501" cy="88.631" rx="16.501" ry="88.631" transform="translate(0 10.905) rotate(-0.481)" fill="#c5c680"/>
            <g id="Group_597" data-name="Group 597" transform="translate(10.618 29.588)" opacity="0.33">
              <path id="Path_988" data-name="Path 988" d="M2068.713,2016.263a1.21,1.21,0,0,0,.511-.006,1.192,1.192,0,0,0,.9-1.424c-10-44.405-5.27-113.9-3.252-143.579.613-9,.853-12.687.65-13.648a1.193,1.193,0,0,0-2.334.492c.136.8-.232,6.182-.7,12.991-2.025,29.782-6.773,99.524,3.3,144.265A1.2,1.2,0,0,0,2068.713,2016.263Z" transform="translate(-2061.592 -1856.661)" fill="#fff"/>
            </g>
          </g>
          <g id="Group_600" data-name="Group 600" transform="translate(0 50.81)">
            <ellipse id="Ellipse_153" data-name="Ellipse 153" cx="42.59" cy="69.721" rx="42.59" ry="69.721" transform="translate(0 46.255) rotate(-32.89)" fill="#aeb72a"/>
            <g id="Group_599" data-name="Group 599" transform="translate(34.832 31.615)" opacity="0.33">
              <path id="Path_989" data-name="Path 989" d="M2113,1987.186a1.787,1.787,0,0,0,1.292-2.114,94.21,94.21,0,0,0-3.823-12.531c5.394-12.95-1.69-41.611-2-42.857a1.782,1.782,0,0,0-2.165-1.294l-.014,0a1.783,1.783,0,0,0-1.281,2.158c.065.266,5.8,23.431,3.32,36.632-6.284-14.857-15.848-31.067-25.45-45.648,7.016-14.827-4.136-36.985-4.623-37.932a1.783,1.783,0,0,0-3.176,1.622c.107.206,9.774,19.432,5.4,32.7-15.154-22.594-29.726-40.494-30.887-41.915a1.783,1.783,0,0,0-2.761,2.258c.116.141,9.915,12.15,21.8,28.866-3.8,2.354-10.489-.579-15.558-3.557a85.873,85.873,0,0,1-11.495-8.266,1.782,1.782,0,0,0-2.351,2.679c2.232,1.961,21.622,18.539,31.464,12.06q2.381,3.394,4.832,6.993c8.259,12.142,15.21,23.421,20.754,33.639-11.766,7.733-31.051-11.713-31.246-11.913a1.783,1.783,0,0,0-2.549,2.5c.879.9,21.294,21.489,35.482,12.577a186.039,186.039,0,0,1,8.669,18.708,1.783,1.783,0,0,0,.59,1.546,89.051,89.051,0,0,1,3.586,11.746,1.784,1.784,0,0,0,2.128,1.354Z" transform="translate(-2038.624 -1875.36)" fill="#fff"/>
            </g>
          </g>
        </g>
        <g id="Group_603" data-name="Group 603" transform="translate(213.662 80.546)">
          <ellipse id="Ellipse_154" data-name="Ellipse 154" cx="4.657" cy="21.112" rx="4.657" ry="21.112" transform="translate(29.504 6.91) rotate(-2.174)" fill="#c5c680"/>
          <ellipse id="Ellipse_155" data-name="Ellipse 155" cx="4.991" cy="19.283" rx="4.991" ry="19.283" transform="matrix(0.989, -0.145, 0.145, 0.989, 13.793, 31.764)" fill="#c5c680"/>
          <ellipse id="Ellipse_156" data-name="Ellipse 156" cx="4.991" cy="16.153" rx="4.991" ry="16.153" transform="matrix(0.953, -0.303, 0.303, 0.953, 0, 54.935)" fill="#c5c680"/>
          <ellipse id="Ellipse_157" data-name="Ellipse 157" cx="22.627" cy="4.991" rx="22.627" ry="4.991" transform="matrix(0.894, -0.448, 0.448, 0.894, 32.207, 47.65)" fill="#c5c680"/>
          <ellipse id="Ellipse_158" data-name="Ellipse 158" cx="19.283" cy="4.991" rx="19.283" ry="4.991" transform="translate(22.542 63.975) rotate(-20.435)" fill="#c5c680"/>
          <ellipse id="Ellipse_159" data-name="Ellipse 159" cx="16.153" cy="4.991" rx="16.153" ry="4.991" transform="matrix(0.981, -0.193, 0.193, 0.981, 14.875, 79.561)" fill="#c5c680"/>
          <ellipse id="Ellipse_160" data-name="Ellipse 160" cx="16.728" cy="3.649" rx="16.728" ry="3.649" transform="translate(41.701 29.588) rotate(-62.174)" fill="#c5c680"/>
          <g id="Group_602" data-name="Group 602" transform="translate(2.665 30.504)">
            <path id="Path_990" data-name="Path 990" d="M2103.673,1955.875a.787.787,0,0,1-.531-1.393c10.726-8.867,40.971-67.965,41.277-68.561a.787.787,0,1,1,1.4.715c-.077.15-7.734,15.131-16.637,31.028-11.987,21.41-20.41,34.2-25.038,38.03A.773.773,0,0,1,2103.673,1955.875Z" transform="translate(-2102.856 -1885.491)" fill="#c5c680"/>
          </g>
        </g>
      </g>
      <g id="Plant-3" data-name="Plant" transform="translate(72.217 120.804)">
        <path id="Path_991" data-name="Path 991" d="M2239.451,1958.6a23.709,23.709,0,0,1-.531,4.987H2056.98a38.677,38.677,0,0,1,58.115-49.109,49.226,49.226,0,0,1,92.355,22.258,23.821,23.821,0,0,1,8.542-1.616A23.467,23.467,0,0,1,2239.451,1958.6Z" transform="translate(-2051.855 -1888.943)" fill="#b0ce34"/>
      </g>
      <g id="Plant-4" data-name="Plant" transform="translate(577.481 120.804)">
        <path id="Path_992" data-name="Path 992" d="M2230.67,1958.6a23.693,23.693,0,0,0,.531,4.987h181.94a38.677,38.677,0,0,0-58.115-49.109,49.224,49.224,0,0,0-92.352,22.258,23.853,23.853,0,0,0-8.545-1.616A23.467,23.467,0,0,0,2230.67,1958.6Z" transform="translate(-2230.67 -1888.943)" fill="#b0ce34"/>
      </g>
    </g>
    <g id="Solar" transform="translate(2428.459 2301.466)">
      <g id="Group_607" data-name="Group 607">
        <g id="Group_605" data-name="Group 605">
          <path id="Path_993" data-name="Path 993" d="M2342.706,1866.916H2171.062l-49.777,87.538H2292.93Z" transform="translate(-2121.285 -1866.916)" fill="#58bad1"/>
          <path id="Path_994" data-name="Path 994" d="M2342.706,1866.916l-49.776,87.538H2121.285l2.4,4.744H2295.33l49.777-87.538Z" transform="translate(-2121.285 -1866.916)" fill="#2a5b61"/>
        </g>
        <g id="Group_606" data-name="Group 606" transform="translate(10.206 5.237)">
          <path id="Path_995" data-name="Path 995" d="M2179.563,1901.6l8.834-15.535,8.833-15.536h-44.387l-17.667,31.071Z" transform="translate(-2106.132 -1865.556)" fill="#c9f3f3"/>
          <path id="Path_996" data-name="Path 996" d="M2145.59,1883.287l-17.667,31.072h44.387l8.834-15.536,8.834-15.536Z" transform="translate(-2119.374 -1842.268)" fill="#c9f3f3"/>
          <path id="Path_997" data-name="Path 997" d="M2170.576,1870.53l-17.667,31.071H2200l8.834-15.535,8.833-15.536Z" transform="translate(-2073.757 -1865.556)" fill="#c9f3f3"/>
          <path id="Path_998" data-name="Path 998" d="M2189.267,1870.53,2171.6,1901.6h45.232l17.667-31.071Z" transform="translate(-2039.635 -1865.556)" fill="#c9f3f3"/>
          <path id="Path_999" data-name="Path 999" d="M2328.308,1868.77H2168.714l-21.7,38.168-22.116,38.9h159.594l23.323-41.017h0Zm-97.665,72.09h-47.092l17.668-31.07h47.092Zm-52.811,0h-44.387l17.669-31.07H2195.5l-8.835,15.535Zm38.163-67.117-8.833,15.535-8.833,15.538h-44.388l17.666-31.073Zm43.978,15.535-8.833,15.538h-47.092l17.669-31.073h47.092Zm-3.11,15.538,17.666-31.073h45.232l-17.669,31.073Zm-11.665,20.509,8.836-15.535h45.229l-17.666,31.07h-45.233Z" transform="translate(-2124.897 -1868.77)" fill="#e7ffff"/>
          <path id="Path_1000" data-name="Path 1000" d="M2227.246,1883.287h-45.231l-8.834,15.536-8.833,15.536h45.231Z" transform="translate(-2052.878 -1842.268)" fill="#c9f3f3"/>
          <path id="Path_1001" data-name="Path 1001" d="M2163.323,1883.287l-17.667,31.072h47.092l17.668-31.072Z" transform="translate(-2087 -1842.268)" fill="#c9f3f3"/>
        </g>
      </g>
      <g id="Group_610" data-name="Group 610" transform="translate(71.25 92.281)">
        <g id="Group_608" data-name="Group 608" transform="translate(0 21.048)">
          <path id="Path_1002" data-name="Path 1002" d="M2227.823,1925v2.665a3.154,3.154,0,0,1-3.337,2.916h-74.625a3.161,3.161,0,0,1-3.359-2.916V1925c0-5.372,11-13.216,26.405-16.473a69.733,69.733,0,0,1,14.267-1.5C2209.614,1907.024,2227.823,1918.061,2227.823,1925Z" transform="translate(-2146.501 -1907.024)" fill="#b14225"/>
        </g>
        <path id="Path_1003" data-name="Path 1003" d="M2223.765,1922.52a3.568,3.568,0,0,0,2.218-.757c-4.264-6.674-20.344-14.739-39.53-14.739a69.729,69.729,0,0,0-14.267,1.5c-12.515,2.647-22.125,8.321-25.29,13.235a3.633,3.633,0,0,0,2.244.76Z" transform="translate(-2145.78 -1885.976)" fill="#ec8304"/>
        <g id="Group_609" data-name="Group 609" transform="translate(27.098)">
          <path id="Path_1004" data-name="Path 1004" d="M2183.228,1899.575h-27.137v2.7c9.174,2.735,18.217,5.8,27.137,9.11Z" transform="translate(-2156.091 -1899.575)" fill="#b14225"/>
          <path id="Path_1005" data-name="Path 1005" d="M2156.091,1900.532v22.7c0,3.2,6.074,5.792,13.569,5.792s13.569-2.593,13.569-5.792v-13.588C2174.308,1906.328,2165.265,1903.267,2156.091,1900.532Z" transform="translate(-2156.091 -1897.828)" fill="#ec8304"/>
        </g>
      </g>
    </g>
    <g id="Solar-2" data-name="Solar" transform="translate(2632.043 2340.099)">
      <g id="Group_614" data-name="Group 614">
        <g id="Group_612" data-name="Group 612">
          <path id="Path_1006" data-name="Path 1006" d="M2352.262,1880.589h-123.2l-35.728,62.832h123.2Z" transform="translate(-2193.334 -1880.589)" fill="#58bad1"/>
          <path id="Path_1007" data-name="Path 1007" d="M2352.262,1880.589l-35.728,62.832h-123.2l1.724,3.405h123.2l35.728-62.832Z" transform="translate(-2193.334 -1880.589)" fill="#2a5b61"/>
        </g>
        <g id="Group_613" data-name="Group 613" transform="translate(7.323 3.758)">
          <path id="Path_1008" data-name="Path 1008" d="M2235.164,1905.485l6.341-11.151,6.34-11.151h-31.86l-12.68,22.3Z" transform="translate(-2182.456 -1879.612)" fill="#c9f3f3"/>
          <path id="Path_1009" data-name="Path 1009" d="M2210.779,1892.339l-12.681,22.3h31.86l6.341-11.151,6.341-11.151Z" transform="translate(-2191.961 -1862.896)" fill="#c9f3f3"/>
          <path id="Path_1010" data-name="Path 1010" d="M2228.713,1883.183l-12.68,22.3h33.8l6.341-11.151,6.34-11.151Z" transform="translate(-2159.218 -1879.612)" fill="#c9f3f3"/>
          <path id="Path_1011" data-name="Path 1011" d="M2242.129,1883.183l-12.681,22.3h32.466l12.681-22.3Z" transform="translate(-2134.727 -1879.612)" fill="#c9f3f3"/>
          <path id="Path_1012" data-name="Path 1012" d="M2341.929,1881.919H2227.378l-15.575,27.4-15.877,27.917H2310.48l16.739-29.44h0Zm-70.1,51.746h-33.8l12.682-22.3h33.8Zm-37.908,0h-31.859l12.681-22.3H2246.6l-6.341,11.15Zm27.391-48.175-6.338,11.151-6.34,11.153h-31.862l12.681-22.3Zm31.568,11.151-6.341,11.153h-33.8l12.682-22.3h33.8Zm-2.235,11.153,12.681-22.3h32.467l-12.682,22.3Zm-8.37,14.719,6.341-11.15h32.467l-12.682,22.3h-32.466Z" transform="translate(-2195.926 -1881.919)" fill="#e7ffff"/>
          <path id="Path_1013" data-name="Path 1013" d="M2269.389,1892.339h-32.465l-6.341,11.151-6.34,11.151h32.466Z" transform="translate(-2144.232 -1862.896)" fill="#c9f3f3"/>
          <path id="Path_1014" data-name="Path 1014" d="M2223.508,1892.339l-12.681,22.3h33.8l12.681-22.3Z" transform="translate(-2168.723 -1862.896)" fill="#c9f3f3"/>
        </g>
      </g>
      <g id="Group_617" data-name="Group 617" transform="translate(51.141 66.236)">
        <g id="Group_615" data-name="Group 615" transform="translate(0 15.108)">
          <path id="Path_1015" data-name="Path 1015" d="M2269.8,1922.276v1.913a2.265,2.265,0,0,1-2.4,2.094h-53.562a2.27,2.27,0,0,1-2.413-2.094v-1.913c0-3.854,7.9-9.486,18.954-11.823a50.093,50.093,0,0,1,10.24-1.077C2256.733,1909.377,2269.8,1917.3,2269.8,1922.276Z" transform="translate(-2211.433 -1909.377)" fill="#b14225"/>
        </g>
        <path id="Path_1016" data-name="Path 1016" d="M2266.89,1920.5a2.577,2.577,0,0,0,1.594-.542c-3.063-4.79-14.606-10.58-28.375-10.58a50.091,50.091,0,0,0-10.24,1.077c-8.983,1.9-15.88,5.97-18.152,9.5a2.588,2.588,0,0,0,1.611.545Z" transform="translate(-2210.915 -1894.268)" fill="#ec8304"/>
        <g id="Group_616" data-name="Group 616" transform="translate(19.451)">
          <path id="Path_1017" data-name="Path 1017" d="M2237.794,1904.03h-19.477v1.941c6.584,1.964,13.075,4.159,19.477,6.539Z" transform="translate(-2218.317 -1904.03)" fill="#b14225"/>
          <path id="Path_1018" data-name="Path 1018" d="M2218.317,1904.717v16.293c0,2.294,4.36,4.156,9.74,4.156s9.737-1.862,9.737-4.156v-9.754C2231.392,1908.876,2224.9,1906.681,2218.317,1904.717Z" transform="translate(-2218.317 -1902.776)" fill="#ec8304"/>
        </g>
      </g>
    </g>
    <g id="Tree" transform="translate(3129.791 2117.314)">
      <g id="Group_621" data-name="Group 621" transform="translate(39.435)">
        <path id="Path_1019" data-name="Path 1019" d="M2496.76,1878.409c-1.656.554-2.554,2.385-2.775,4.12-.045.4-.079.808-.1,1.22-.09,2.023.147,4.075.023,6.1a7.777,7.777,0,0,1-1.786,4.742,8.766,8.766,0,0,1-6.3,2.432,122.155,122.155,0,0,1-13.445-.557c-1.481-.113-3.018-.407-4.544-.554v-42.755a15.3,15.3,0,0,0-15.261-15.259h-3.9a15.3,15.3,0,0,0-15.259,15.259v5.713a102.953,102.953,0,0,1-11.206.385,8.753,8.753,0,0,1-6.3-2.43,7.755,7.755,0,0,1-1.786-4.741c-.131-2.023.113-4.074.023-6.1q-.026-.611-.1-1.221c-.214-1.735-1.114-3.565-2.775-4.12-6.747-2.237-8.985,7.748-8.957,12.151.063,9.723,3.984,17.934,14.485,18.827a134.587,134.587,0,0,0,16.617.576v145.113c-.514,17.25-1.718,33.435-4.3,39.465,0-.2,5.911-.249,13.405-.237,5.064.011,10.844.045,16.019.09,8.081.068,14.67.146,14.67.146l-5.374-87.928v-59.5c7.482,1.13,16.021.672,23.4.04,10.5-.9,14.416-9.1,14.484-18.827C2505.751,1886.157,2503.513,1876.171,2496.76,1878.409Z" transform="translate(-2348.988 -1735.742)" fill="#893f36"/>
        <path id="Path_1020" data-name="Path 1020" d="M2410.821,1861.111a25.959,25.959,0,0,1-8.143-3.662,31.918,31.918,0,0,1-.359-4.654c-.028-4.4,2.21-14.388,8.957-12.151,1.661.554,2.56,2.385,2.775,4.12q.077.611.1,1.221c.09,2.022-.153,4.074-.023,6.1a7.755,7.755,0,0,0,1.786,4.741,8.753,8.753,0,0,0,6.3,2.43c1.8.065,3.605.04,5.408-.031C2423.641,1862.317,2415.944,1862.376,2410.821,1861.111Zm57.019,4.933v-12.887a15.3,15.3,0,0,0-15.261-15.259h-3.9a15.306,15.306,0,0,0-15.213,14.146c3.979,4.752,10.424,7.4,14.572,9.1C2453.4,1863.337,2460.673,1866.312,2467.84,1866.044ZM2494,1900.449a30.384,30.384,0,0,0,11.091-3.753,30.222,30.222,0,0,0,.633-6.137c.029-4.4-2.209-14.389-8.963-12.151-1.656.554-2.554,2.385-2.775,4.12-.045.4-.079.808-.1,1.22-.09,2.023.147,4.075.023,6.1a7.777,7.777,0,0,1-1.786,4.742,8.766,8.766,0,0,1-6.3,2.432c-2.945.1-5.886-.025-8.828-.22C2481.281,1900.008,2488.509,1901.113,2494,1900.449Z" transform="translate(-2348.988 -1735.742)" fill="#4d2412"/>
        <path id="Path_1021" data-name="Path 1021" d="M2455.865,1849.885c0-14.016-10.78-25.374-24.077-25.374a23.042,23.042,0,0,0-12.165,3.478,14.533,14.533,0,0,0-11.1-5.253,15.135,15.135,0,0,0-14.628,12.667,21.55,21.55,0,0,0-10.447,18.161c0,12.17,10.78,22.034,24.077,22.034a26.063,26.063,0,0,0,8.039-1.263,15.385,15.385,0,0,0,21.189.379C2447.666,1872.3,2455.865,1862.1,2455.865,1849.885Z" transform="translate(-2383.445 -1763.422)" fill="#688336"/>
        <g id="Group_620" data-name="Group 620" transform="translate(118.331 115.245)">
          <ellipse id="Ellipse_161" data-name="Ellipse 161" cx="12.22" cy="15.517" rx="12.22" ry="15.517" transform="translate(30.647 22.277) rotate(-23.858)" fill="#5a6c38"/>
          <ellipse id="Ellipse_162" data-name="Ellipse 162" cx="12.22" cy="15.517" rx="12.22" ry="15.517" transform="translate(0 19.216) rotate(-23.858)" fill="#5a6c38"/>
          <path id="Path_1022" data-name="Path 1022" d="M2488.037,1862.2c0-10.155-9.231-18.387-20.619-18.387a22.451,22.451,0,0,0-10.418,2.521,13.448,13.448,0,0,0-9.511-3.809c-6.208,0-11.376,3.95-12.529,9.181-5.4,2.879-8.946,7.7-8.946,13.158,0,8.819,9.231,15.968,20.619,15.968a26.05,26.05,0,0,0,6.886-.915,14.966,14.966,0,0,0,18.148.274C2481.015,1878.449,2488.037,1871.057,2488.037,1862.2Z" transform="translate(-2424.061 -1842.53)" fill="#799133"/>
        </g>
        <path id="Path_1023" data-name="Path 1023" d="M2535.658,1846.187c-.006-.13,0-.26-.012-.393a44.16,44.16,0,0,0-46.639-41.537,44.646,44.646,0,0,0-11.467,2.15,36.191,36.191,0,0,0-53.618,26.558,28.052,28.052,0,0,0-19.967,51.729,30.745,30.745,0,0,0,43.5,30.381,97.044,97.044,0,0,0,38.6,5.391c37.8-2.06,67.376-23.407,66.052-47.682C2551.537,1862.417,2545.423,1853.195,2535.658,1846.187Z" transform="translate(-2371.712 -1801.745)" fill="#b0b92c"/>
        <path id="Path_1024" data-name="Path 1024" d="M2394.933,1855.98a30.745,30.745,0,0,0,43.5,30.381,97.049,97.049,0,0,0,38.6,5.391c37.8-2.06,67.377-23.407,66.052-47.682-.565-10.367-6.68-19.59-16.445-26.6-16.381,46.5-73.659,46.95-107.038,42.913A204.109,204.109,0,0,1,2394.933,1855.98Z" transform="translate(-2362.69 -1773.03)" fill="#799133"/>
        <path id="Path_1025" data-name="Path 1025" d="M2393.892,1827.219a21.55,21.55,0,0,0-10.447,18.161c0,12.17,10.78,22.034,24.077,22.034a26.063,26.063,0,0,0,8.039-1.263C2387.805,1854.65,2393.892,1827.219,2393.892,1827.219Z" transform="translate(-2383.445 -1755.237)" fill="#5a6c38"/>
      </g>
      <g id="_1" data-name="1" transform="translate(0 122.499)">
        <g id="Group_632" data-name="Group 632" transform="translate(0.452 0)">
          <g id="Group_623" data-name="Group 623" transform="translate(137.139 26.207)">
            <ellipse id="Ellipse_163" data-name="Ellipse 163" cx="4.657" cy="21.112" rx="4.657" ry="21.112" transform="translate(29.504 6.911) rotate(-2.174)" fill="#c5c680"/>
            <ellipse id="Ellipse_164" data-name="Ellipse 164" cx="4.991" cy="19.283" rx="4.991" ry="19.283" transform="matrix(0.989, -0.145, 0.145, 0.989, 13.794, 31.764)" fill="#c5c680"/>
            <ellipse id="Ellipse_165" data-name="Ellipse 165" cx="4.991" cy="16.153" rx="4.991" ry="16.153" transform="matrix(0.953, -0.303, 0.303, 0.953, 0, 54.935)" fill="#c5c680"/>
            <ellipse id="Ellipse_166" data-name="Ellipse 166" cx="22.627" cy="4.991" rx="22.627" ry="4.991" transform="matrix(0.894, -0.448, 0.448, 0.894, 32.208, 47.65)" fill="#c5c680"/>
            <ellipse id="Ellipse_167" data-name="Ellipse 167" cx="19.283" cy="4.991" rx="19.283" ry="4.991" transform="translate(22.542 63.975) rotate(-20.435)" fill="#c5c680"/>
            <ellipse id="Ellipse_168" data-name="Ellipse 168" cx="16.153" cy="4.991" rx="16.153" ry="4.991" transform="matrix(0.981, -0.193, 0.193, 0.981, 14.875, 79.561)" fill="#c5c680"/>
            <ellipse id="Ellipse_169" data-name="Ellipse 169" cx="16.728" cy="3.649" rx="16.728" ry="3.649" transform="translate(41.701 29.588) rotate(-62.174)" fill="#c5c680"/>
            <g id="Group_622" data-name="Group 622" transform="translate(2.666 30.505)">
              <path id="Path_1026" data-name="Path 1026" d="M2419.942,1935.551a.787.787,0,0,1-.531-1.393c10.728-8.866,40.971-67.965,41.276-68.561a.787.787,0,1,1,1.4.715c-.077.149-7.734,15.131-16.634,31.028-11.99,21.41-20.413,34.2-25.041,38.03A.777.777,0,0,1,2419.942,1935.551Z" transform="translate(-2419.126 -1865.168)" fill="#c5c680"/>
            </g>
          </g>
          <g id="Group_631" data-name="Group 631" transform="translate(0)">
            <g id="Group_628" data-name="Group 628">
              <g id="Group_626" data-name="Group 626">
                <g id="Group_624" data-name="Group 624">
                  <ellipse id="Ellipse_170" data-name="Ellipse 170" cx="19.727" cy="96.684" rx="19.727" ry="96.684" transform="translate(0 9.85) rotate(-14.456)" fill="#aeb72a"/>
                </g>
                <g id="Group_625" data-name="Group 625" transform="translate(23.611 51.028)" opacity="0.33">
                  <path id="Path_1027" data-name="Path 1027" d="M2424.571,1999.672a1.187,1.187,0,0,1-1.275-.562,113.8,113.8,0,0,1-5.764-11.469c-8.679-1.829-21.4-24.289-22.873-26.94a1.192,1.192,0,1,1,2.083-1.158c3.518,6.321,13.06,21.588,19.5,25.1-5.787-13.723-12.054-32.836-18.731-57.131-4.348-.435-8.909-5.032-13.566-13.676a103.6,103.6,0,0,1-5.868-13.185,1.193,1.193,0,0,1,2.252-.791c2.317,6.59,9.525,23.069,16.481,25.094q-.775-2.86-1.565-5.82c-7.717-29.033-13.094-54.289-13.148-54.54a1.192,1.192,0,0,1,.919-1.413h0a1.193,1.193,0,0,1,1.416.918c.088.418,3.845,18.011,9.6,40.774,3.741-6.318,2-29.036.921-37.841a1.193,1.193,0,1,1,2.368-.289c.438,3.588,4.077,35.154-2.565,40.981,4.289,16.783,9.592,36.023,15.272,53.155,2.882-3.958,4.2-12.206,3.809-24.007a166.145,166.145,0,0,0-1.758-18.759,1.194,1.194,0,0,1,2.357-.385c.237,1.475,5.744,36.18-3.43,45.694-.031.031-.062.059-.1.087,2.727,8.062,5.533,15.592,8.35,22.094a1.2,1.2,0,0,1,.487.983c0,.037,0,.073-.009.11a111.6,111.6,0,0,0,5.615,11.2,1.19,1.19,0,0,1-.423,1.63A1.116,1.116,0,0,1,2424.571,1999.672Z" transform="translate(-2378.005 -1863.157)" fill="#fff"/>
                </g>
              </g>
              <ellipse id="Ellipse_171" data-name="Ellipse 171" cx="88.631" cy="16.501" rx="88.631" ry="16.501" transform="translate(57.203 187.884) rotate(-89.519)" fill="#c5c680"/>
              <g id="Group_627" data-name="Group 627" transform="translate(72.511 29.588)" opacity="0.33">
                <path id="Path_1028" data-name="Path 1028" d="M2396.753,2015.169a1.17,1.17,0,0,1-.512,0,1.193,1.193,0,0,1-.9-1.424c10-44.4,5.27-113.9,3.252-143.581-.613-9-.853-12.687-.65-13.648a1.193,1.193,0,0,1,2.334.491c-.136.806.231,6.185.695,13,2.026,29.78,6.773,99.521-3.306,144.265A1.187,1.187,0,0,1,2396.753,2015.169Z" transform="translate(-2395.311 -1855.569)" fill="#fff"/>
              </g>
            </g>
            <g id="Group_630" data-name="Group 630" transform="translate(33.555 50.81)">
              <ellipse id="Ellipse_172" data-name="Ellipse 172" cx="69.721" cy="42.59" rx="69.721" ry="42.59" transform="translate(0 117.093) rotate(-57.11)" fill="#aeb72a"/>
              <g id="Group_629" data-name="Group 629" transform="translate(36.704 31.616)" opacity="0.33">
                <path id="Path_1029" data-name="Path 1029" d="M2395.848,1986.092a1.783,1.783,0,0,1-1.292-2.114,94.363,94.363,0,0,1,3.823-12.531c-5.4-12.95,1.689-41.607,2-42.853a1.781,1.781,0,0,1,2.161-1.3l.017.006a1.781,1.781,0,0,1,1.28,2.158c-.065.263-5.8,23.43-3.32,36.632,6.285-14.857,15.849-31.071,25.451-45.651-7.016-14.823,4.137-36.982,4.62-37.931a1.784,1.784,0,0,1,3.176,1.625c-.1.2-9.771,19.432-5.4,32.7,15.153-22.594,29.725-40.494,30.887-41.912a1.783,1.783,0,1,1,2.761,2.257c-.116.142-9.915,12.151-21.8,28.864,3.8,2.356,10.488-.58,15.558-3.555a86.128,86.128,0,0,0,11.494-8.268,1.782,1.782,0,1,1,2.351,2.679c-2.235,1.964-21.622,18.541-31.463,12.06q-2.382,3.4-4.832,6.994c-8.26,12.144-15.211,23.422-20.754,33.642,11.763,7.734,31.051-11.715,31.245-11.913a1.783,1.783,0,0,1,2.549,2.5c-.879.9-21.294,21.486-35.481,12.574a186.177,186.177,0,0,0-8.669,18.708,1.792,1.792,0,0,1-.59,1.549,88.916,88.916,0,0,0-3.586,11.743,1.782,1.782,0,0,1-2.128,1.353Z" transform="translate(-2394.514 -1874.268)" fill="#fff"/>
              </g>
            </g>
          </g>
        </g>
        <g id="Group_633" data-name="Group 633" transform="translate(0 139.022)">
          <path id="Path_1030" data-name="Path 1030" d="M2530.68,1946.92a28.063,28.063,0,0,1-.9,6.891H2388.1a27.3,27.3,0,0,1-.913-6.891,27.75,27.75,0,0,1,39.663-25.092,36.537,36.537,0,0,1,70.2-2.059,27.332,27.332,0,0,1,5.854-.628A27.784,27.784,0,0,1,2530.68,1946.92Z" transform="translate(-2337.185 -1894.298)" fill="#587324"/>
          <path id="Path_1031" data-name="Path 1031" d="M2469.332,1937.318a19.561,19.561,0,0,1-.624,4.795h-98.583a19,19,0,0,1-.636-4.795,19.313,19.313,0,0,1,27.6-17.46,25.421,25.421,0,0,1,48.844-1.432,19.323,19.323,0,0,1,23.4,18.892Z" transform="translate(-2369.489 -1882.6)" fill="#b0ce34"/>
        </g>
      </g>
    </g>
    <g id="Windmill-2" data-name="Windmill" transform="translate(2160.255 2087.545)">
      <rect id="Rectangle_56" data-name="Rectangle 56" width="5.803" height="16.354" transform="translate(99.912 117.085)" fill="#fff"/>
      <rect id="Rectangle_57" data-name="Rectangle 57" width="2.902" height="16.354" transform="translate(102.814 117.085)" fill="#42abbc"/>
      <g id="Group_634" data-name="Group 634" transform="translate(93.799)">
        <rect id="Rectangle_58" data-name="Rectangle 58" width="7.502" height="19.505" transform="translate(5.264 85.343)" fill="#fff"/>
        <rect id="Rectangle_59" data-name="Rectangle 59" width="3.755" height="19.505" transform="translate(9.011 85.343)" fill="#42abbc"/>
        <path id="Path_1032" data-name="Path 1032" d="M2073.935,1796.574a5.5,5.5,0,0,0-11.006.014l-3.354,76.809c-.24,5.473,2.984,10.119,7.146,10.116l3.747,0c4.159,0,7.366-4.651,7.109-10.122Z" transform="translate(-2059.562 -1791.205)" fill="#70c4de"/>
        <path id="Path_1033" data-name="Path 1033" d="M2068.572,1791.209v92.3h-1.862c-4.157,0-7.384-4.623-7.135-10.116l3.351-76.789a5.563,5.563,0,0,1,5.491-5.4Z" transform="translate(-2059.562 -1791.209)" fill="#fff"/>
      </g>
      <g id="Group_635" data-name="Group 635" transform="translate(106.564 109.851)">
        <rect id="Rectangle_60" data-name="Rectangle 60" width="7.502" height="19.506" transform="translate(20.896 7.313) rotate(112.019)" fill="#fff"/>
        <rect id="Rectangle_61" data-name="Rectangle 61" width="3.755" height="19.506" transform="matrix(-0.375, 0.927, -0.927, -0.375, 19.492, 10.786)" fill="#42abbc"/>
        <path id="Path_1034" data-name="Path 1034" d="M2148,1874.213a5.5,5.5,0,0,0,4.111-10.208l-69.951-31.9c-4.982-2.271-10.5-1.026-12.054,2.834l-1.4,3.476c-1.56,3.857,1.548,8.573,6.719,10.384Z" transform="translate(-2056.376 -1828.476)" fill="#70c4de"/>
        <path id="Path_1035" data-name="Path 1035" d="M2154.266,1871.257l-85.571-34.6.7-1.727c1.56-3.854,7.056-5.112,12.055-2.823l69.931,31.89a5.564,5.564,0,0,1,2.947,7.115Z" transform="translate(-2055.655 -1828.478)" fill="#fff"/>
      </g>
      <g id="Group_636" data-name="Group 636" transform="translate(0 109.851)">
        <rect id="Rectangle_62" data-name="Rectangle 62" width="7.502" height="19.505" transform="translate(96.25 0) rotate(67.983)" fill="#fff"/>
        <rect id="Rectangle_63" data-name="Rectangle 63" width="3.755" height="19.506" transform="translate(97.654 3.474) rotate(67.985)" fill="#42abbc"/>
        <path id="Path_1036" data-name="Path 1036" d="M2033.8,1874.213a5.5,5.5,0,0,1-4.112-10.208l69.951-31.9c4.984-2.271,10.5-1.026,12.054,2.834l1.4,3.476c1.557,3.857-1.551,8.573-6.722,10.384Z" transform="translate(-2026.361 -1828.476)" fill="#70c4de"/>
        <path id="Path_1037" data-name="Path 1037" d="M2026.817,1871.257l85.571-34.6-.7-1.727c-1.56-3.854-7.056-5.112-12.052-2.823L2029.7,1864a5.565,5.565,0,0,0-2.947,7.115Z" transform="translate(-2026.367 -1828.478)" fill="#fff"/>
      </g>
      <path id="Path_1038" data-name="Path 1038" d="M2081.547,2068.71H2058.71l5.586-226.456a5.833,5.833,0,0,1,11.664,0Z" transform="translate(-1967.319 -1708.44)" fill="#fff"/>
      <path id="Path_1039" data-name="Path 1039" d="M2074.17,2068.71h-11.419V1836.546a5.839,5.839,0,0,1,5.832,5.708Z" transform="translate(-1959.942 -1708.44)" fill="#70c4de"/>
      <path id="Path_1040" data-name="Path 1040" d="M2079.527,1836.786a10.191,10.191,0,1,1-10.189-10.189A10.189,10.189,0,0,1,2079.527,1836.786Z" transform="translate(-1966.524 -1726.604)" fill="#b14225"/>
      <path id="Path_1041" data-name="Path 1041" d="M2072.755,1834.128a6.076,6.076,0,1,1-6.075-6.076A6.075,6.075,0,0,1,2072.755,1834.128Z" transform="translate(-1963.865 -1723.945)" fill="#ec8304"/>
    </g>
    <g id="Windmill-3" data-name="Windmill" transform="translate(2233.007 1942.678)">
      <rect id="Rectangle_64" data-name="Rectangle 64" width="7.984" height="22.501" transform="translate(137.46 161.09)" fill="#fff"/>
      <rect id="Rectangle_65" data-name="Rectangle 65" width="3.992" height="22.501" transform="translate(141.452 161.09)" fill="#42abbc"/>
      <g id="Group_638" data-name="Group 638" transform="translate(129.048)">
        <rect id="Rectangle_66" data-name="Rectangle 66" width="10.322" height="26.836" transform="translate(7.243 117.418)" fill="#fff"/>
        <rect id="Rectangle_67" data-name="Rectangle 67" width="5.166" height="26.836" transform="translate(12.398 117.418)" fill="#42abbc"/>
        <path id="Path_1042" data-name="Path 1042" d="M2117.559,1747.324a7.572,7.572,0,0,0-15.139.019l-4.617,105.676c-.33,7.528,4.105,13.919,9.831,13.916l5.156,0c5.725,0,10.139-6.4,9.78-13.931Z" transform="translate(-2097.783 -1739.934)" fill="#70c4de"/>
        <path id="Path_1043" data-name="Path 1043" d="M2110.182,1739.94v126.989h-2.56c-5.722,0-10.162-6.358-9.82-13.913l4.612-105.651a7.653,7.653,0,0,1,7.555-7.426Z" transform="translate(-2097.784 -1739.94)" fill="#fff"/>
      </g>
      <g id="Group_639" data-name="Group 639" transform="translate(146.612 151.136)">
        <rect id="Rectangle_68" data-name="Rectangle 68" width="10.322" height="26.837" transform="matrix(-0.375, 0.927, -0.927, -0.375, 28.75, 10.06)" fill="#fff"/>
        <rect id="Rectangle_69" data-name="Rectangle 69" width="5.167" height="26.837" transform="translate(26.817 14.839) rotate(112.015)" fill="#42abbc"/>
        <path id="Path_1044" data-name="Path 1044" d="M2219.46,1854.137a7.572,7.572,0,0,0,5.657-14.043l-96.241-43.893c-6.855-3.128-14.441-1.41-16.583,3.9l-1.933,4.781c-2.142,5.309,2.134,11.8,9.248,14.289Z" transform="translate(-2093.402 -1791.213)" fill="#70c4de"/>
        <path id="Path_1045" data-name="Path 1045" d="M2228.082,1850.074l-117.732-47.6.96-2.376c2.145-5.3,9.706-7.033,16.581-3.885l96.218,43.879a7.653,7.653,0,0,1,4.052,9.788Z" transform="translate(-2092.408 -1791.218)" fill="#fff"/>
      </g>
      <g id="Group_640" data-name="Group 640" transform="translate(0 151.136)">
        <rect id="Rectangle_70" data-name="Rectangle 70" width="10.322" height="26.836" transform="translate(132.421 0) rotate(67.983)" fill="#fff"/>
        <rect id="Rectangle_71" data-name="Rectangle 71" width="5.167" height="26.836" transform="matrix(0.375, 0.927, -0.927, 0.375, 134.354, 4.78)" fill="#42abbc"/>
        <path id="Path_1046" data-name="Path 1046" d="M2062.342,1854.137a7.573,7.573,0,0,1-5.661-14.043l96.241-43.893c6.855-3.128,14.442-1.41,16.586,3.9l1.93,4.781c2.142,5.309-2.133,11.8-9.245,14.289Z" transform="translate(-2052.106 -1791.212)" fill="#70c4de"/>
        <path id="Path_1047" data-name="Path 1047" d="M2052.73,1850.074l117.732-47.6-.961-2.376c-2.145-5.3-9.706-7.033-16.58-3.885l-96.216,43.879a7.654,7.654,0,0,0-4.055,9.788Z" transform="translate(-2052.114 -1791.217)" fill="#fff"/>
      </g>
      <path id="Path_1048" data-name="Path 1048" d="M2128.028,2121.736h-31.415l7.683-311.565a8.027,8.027,0,0,1,16.05,0Z" transform="translate(-1970.875 -1626.064)" fill="#fff"/>
      <path id="Path_1049" data-name="Path 1049" d="M2117.879,2121.736h-15.707v-319.42a8.037,8.037,0,0,1,8.025,7.855Z" transform="translate(-1960.726 -1626.064)" fill="#70c4de"/>
      <path id="Path_1050" data-name="Path 1050" d="M2125.249,1802.646a14.018,14.018,0,1,1-14.018-14.018A14.02,14.02,0,0,1,2125.249,1802.646Z" transform="translate(-1969.78 -1651.054)" fill="#b14225"/>
      <path id="Path_1051" data-name="Path 1051" d="M2115.935,1798.989a8.359,8.359,0,1,1-8.361-8.358A8.361,8.361,0,0,1,2115.935,1798.989Z" transform="translate(-1966.122 -1647.397)" fill="#ec8304"/>
    </g>
    <g id="House-3" data-name="House" transform="translate(2797.644 2251.502)">
      <g id="Group_642" data-name="Group 642" transform="translate(24.417 87.657)">
        <path id="Path_1052" data-name="Path 1052" d="M2260.582,1979.231h121.776v-97.837l-121.776-1.139Z" transform="translate(-2260.582 -1880.256)" fill="#ec8304"/>
      </g>
      <g id="Group_643" data-name="Group 643" transform="translate(45.6)">
        <path id="Path_1053" data-name="Path 1053" d="M2268.079,1849.234h174.106l46.538,78.5a6.817,6.817,0,0,1-5.864,10.294H2320.72Z" transform="translate(-2268.079 -1849.234)" fill="#58bad1"/>
      </g>
      <g id="Group_644" data-name="Group 644" transform="translate(146.192 15.036)">
        <path id="Path_1054" data-name="Path 1054" d="M2303.679,1928.314v97.837h106.905v-97.837l-41.941-73.759" transform="translate(-2303.679 -1854.555)" fill="#b14225"/>
      </g>
      <path id="Rectangle_72" data-name="Rectangle 72" d="M4,0H35.151a4,4,0,0,1,4,4V65.648a0,0,0,0,1,0,0H0a0,0,0,0,1,0,0V4A4,4,0,0,1,4,0Z" transform="translate(205.749 121.2)" fill="#58bad1"/>
      <g id="Group_645" data-name="Group 645">
        <path id="Path_1055" data-name="Path 1055" d="M2471.647,1849.234H2297.542l-44.7,78.609a6.817,6.817,0,0,0,5.925,10.187h154.457a13.635,13.635,0,0,0,11.851-6.895Z" transform="translate(-2251.941 -1849.234)" fill="#70c4de"/>
      </g>
      <g id="Group_646" data-name="Group 646" transform="translate(36.852 111.316)">
        <path id="Path_1056" data-name="Path 1056" d="M2356.626,1923.926H2271.8a6.817,6.817,0,0,1-6.819-6.818v-21.662a6.817,6.817,0,0,1,6.819-6.818h84.825a6.817,6.817,0,0,1,6.819,6.818v21.662A6.817,6.817,0,0,1,2356.626,1923.926Z" transform="translate(-2264.983 -1888.629)" fill="#e7ffff"/>
      </g>
      <g id="Group_647" data-name="Group 647" transform="translate(161.751 111.316)">
        <rect id="Rectangle_73" data-name="Rectangle 73" width="31.331" height="35.297" rx="2.412" fill="#58bad1"/>
      </g>
      <g id="Group_648" data-name="Group 648" transform="translate(193.021 57.038)">
        <path id="Path_1057" data-name="Path 1057" d="M2354.081,1886.334a16.914,16.914,0,1,0-16.915,16.911A16.932,16.932,0,0,0,2354.081,1886.334Z" transform="translate(-2320.252 -1869.42)" fill="#c9f3f3"/>
        <path id="Path_1058" data-name="Path 1058" d="M2320.252,1886.334a16.914,16.914,0,1,1,16.914,16.911A16.934,16.934,0,0,1,2320.252,1886.334Z" transform="translate(-2320.252 -1869.42)" fill="#58bad1"/>
      </g>
      <path id="Path_1059" data-name="Path 1059" d="M2429.412,1853.123l-7.463,2.828H2299.315l-18.012,31.678-15.659,27.539-5.062,1.918,2.364,2.828h132.461l19.358-34.046,17.011-29.917Z" transform="translate(-2236.166 -1842.134)" fill="#42abbc"/>
      <g id="Group_649" data-name="Group 649" transform="translate(24.417 10.989)">
        <path id="Path_1060" data-name="Path 1060" d="M2305.954,1880.373l7.332-12.895,7.332-12.895h-36.841l-14.663,25.789Z" transform="translate(-2245.006 -1850.456)" fill="#c9f3f3"/>
        <path id="Path_1061" data-name="Path 1061" d="M2277.757,1865.172l-14.664,25.789h36.841l7.333-12.895,7.332-12.895Z" transform="translate(-2255.997 -1831.127)" fill="#c9f3f3"/>
        <path id="Path_1062" data-name="Path 1062" d="M2298.5,1854.584l-14.664,25.789h39.086l7.332-12.895,7.332-12.895Z" transform="translate(-2218.136 -1850.456)" fill="#c9f3f3"/>
        <path id="Path_1063" data-name="Path 1063" d="M2314.008,1854.584l-14.663,25.789h37.541l14.664-25.789Z" transform="translate(-2189.815 -1850.456)" fill="#c9f3f3"/>
        <path id="Path_1064" data-name="Path 1064" d="M2429.413,1853.123H2296.95l-18.01,31.678-18.358,32.285h132.462l19.359-34.045h0Zm-81.062,59.835h-39.084l14.662-25.79h39.087Zm-43.834,0h-36.84l14.665-25.79h36.841l-7.333,12.894Zm31.675-55.707-7.33,12.893-7.332,12.9H2284.69l14.663-25.79Zm36.5,12.893-7.33,12.9h-39.087l14.665-25.79h39.084Zm-2.583,12.9,14.665-25.79h37.542l-14.665,25.79Zm-9.678,17.021,7.33-12.894h37.544l-14.665,25.79H2353.1Z" transform="translate(-2260.582 -1853.123)" fill="#e7ffff"/>
        <path id="Path_1065" data-name="Path 1065" d="M2345.53,1865.172h-37.541l-7.332,12.895-7.333,12.895h37.543Z" transform="translate(-2200.806 -1831.127)" fill="#c9f3f3"/>
        <path id="Path_1066" data-name="Path 1066" d="M2292.476,1865.172l-14.664,25.789H2316.9l14.665-25.789Z" transform="translate(-2229.127 -1831.127)" fill="#c9f3f3"/>
      </g>
    </g>
  </g>
</svg>
