<?xml version="1.0" encoding="utf-8"?>
<!-- Generator: Adobe Illustrator 16.0.0, SVG Export Plug-In . SVG Version: 6.00 Build 0)  -->
<!DOCTYPE svg PUBLIC "-//W3C//DTD SVG 1.0//EN" "http://www.w3.org/TR/2001/REC-SVG-20010904/DTD/svg10.dtd">
<svg version="1.0" id="Layer_1" xmlns="http://www.w3.org/2000/svg" xmlns:xlink="http://www.w3.org/1999/xlink" x="0px" y="0px"
	 width="100px" height="100px" viewBox="0 0 100 100" enable-background="new 0 0 100 100" xml:space="preserve">
<polygon fill="none" stroke="#000000" stroke-width="2" stroke-linecap="round" stroke-linejoin="round" stroke-miterlimit="10" points="
	26.726,59.058 37.874,64.636 15.577,86.932 10,75.783 "/>
<polygon fill="none" stroke="#000000" stroke-width="2" stroke-linecap="round" stroke-linejoin="round" stroke-miterlimit="10" points="
	75.783,10 86.932,15.574 64.635,37.874 59.058,26.726 "/>
<path fill="none" stroke="#000000" stroke-width="2" stroke-linecap="round" stroke-linejoin="round" stroke-miterlimit="10" d="
	M38.546,87.604C61.669,78.02,78.722,59.974,87.6,38.542c2.02-2.021,2.891-5.191,2.126-9.025c-1.536-7.666-2.79-13.939-2.79-13.939
	l-0.004-0.003l-22.297,22.3v0.003c0,0,3.215,0.645,7.82,1.564c-2.779,16.912-16.102,30.23-33.01,33.015
	c-0.924-4.606-1.564-7.817-1.564-7.817l-0.007-0.003l-22.3,22.3l0.007,0.003c0,0,6.27,1.254,13.936,2.787
	c3.834,0.765,7.003-0.106,9.025-2.126L38.546,87.604z"/>
<path fill="none" stroke="#000000" stroke-width="2" stroke-linecap="round" stroke-linejoin="round" stroke-miterlimit="10" d="
	M40.668,78.574c0.765,3.834-0.104,7.004-2.126,9.025C40.564,85.578,41.433,82.408,40.668,78.574z"/>
<path fill="none" stroke="#000000" stroke-width="2" stroke-linecap="round" stroke-linejoin="round" stroke-miterlimit="10" d="
	M87.597,38.542c-2.019,2.02-5.191,2.891-9.022,2.126C82.405,41.433,85.578,40.562,87.597,38.542z"/>
</svg>
