<?xml version="1.0" encoding="utf-8"?>
<!-- Generator: Adobe Illustrator 16.0.0, SVG Export Plug-In . SVG Version: 6.00 Build 0)  -->
<!DOCTYPE svg PUBLIC "-//W3C//DTD SVG 1.0//EN" "http://www.w3.org/TR/2001/REC-SVG-20010904/DTD/svg10.dtd">
<svg version="1.0" id="Layer_1" xmlns="http://www.w3.org/2000/svg" xmlns:xlink="http://www.w3.org/1999/xlink" x="0px" y="0px"
	 width="100px" height="100px" viewBox="0 0 100 100" enable-background="new 0 0 100 100" xml:space="preserve">
<path fill="none" stroke="#000000" stroke-width="2" stroke-linecap="round" stroke-linejoin="round" stroke-miterlimit="10" d="
	M75,69.998c0,4.145-3.357,7.5-7.5,7.5h-35c-4.142,0-7.5-3.359-7.5-7.5V25c0-4.143,3.358-7.5,7.5-7.5h35c4.143,0,7.5,3.359,7.5,7.5
	V69.998z"/>
<circle fill="none" stroke="#000000" stroke-width="2" stroke-linecap="round" stroke-linejoin="round" stroke-miterlimit="10" cx="50" cy="83.75" r="6.25"/>
<path fill="none" stroke="#000000" stroke-width="2" stroke-linecap="round" stroke-linejoin="round" stroke-miterlimit="10" d="
	M45.001,23.75h10H45.001z"/>
<path fill="none" stroke="#000000" stroke-width="2" stroke-linecap="round" stroke-linejoin="round" stroke-miterlimit="10" d="
	M67.5,10h-35c-4.142,0-7.5,3.357-7.5,7.5V25c0-4.143,3.358-7.5,7.5-7.5h35c4.143,0,7.5,3.359,7.5,7.5v-7.5
	C75,13.36,71.643,10,67.5,10z"/>
<path fill="none" stroke="#000000" stroke-width="2" stroke-linecap="round" stroke-linejoin="round" stroke-miterlimit="10" d="
	M67.5,77.498H50c3.452,0,6.25,2.801,6.25,6.252c0,3.449-2.799,6.25-6.25,6.25h17.5c4.143,0,7.5-3.355,7.5-7.5V69.998
	C75,74.143,71.643,77.498,67.5,77.498z"/>
<path fill="none" stroke="#000000" stroke-width="2" stroke-linecap="round" stroke-linejoin="round" stroke-miterlimit="10" d="
	M43.75,83.75c0-3.451,2.798-6.252,6.249-6.252H32.5c-4.142,0-7.5-3.359-7.5-7.5V82.5c0,4.141,3.358,7.5,7.5,7.5H50
	C46.548,90,43.75,87.199,43.75,83.75z"/>
</svg>
