<?xml version="1.0" encoding="utf-8"?>
<!-- Generator: Adobe Illustrator 16.0.0, SVG Export Plug-In . SVG Version: 6.00 Build 0)  -->
<!DOCTYPE svg PUBLIC "-//W3C//DTD SVG 1.0//EN" "http://www.w3.org/TR/2001/REC-SVG-20010904/DTD/svg10.dtd">
<svg version="1.0" id="Layer_1" xmlns="http://www.w3.org/2000/svg" xmlns:xlink="http://www.w3.org/1999/xlink" x="0px" y="0px"
	 width="100px" height="100px" viewBox="0 0 100 100" enable-background="new 0 0 100 100" xml:space="preserve">
<path fill="none" stroke="#000000" stroke-width="2" stroke-linecap="round" stroke-linejoin="round" stroke-miterlimit="10" d="
	M84.15,61.317c-5.707-5.707-13.109-7.557-16.535-4.133c-3.423,3.423-1.573,10.826,4.134,16.533
	c5.706,5.704,13.107,7.558,16.532,4.131C91.705,74.426,89.855,67.022,84.15,61.317z M84.746,74.312
	c-0.118,0.119-0.482,0.257-1.116,0.257c-1.825,0-5.106-1.148-8.347-4.387c-4.459-4.46-4.817-8.776-4.132-9.46
	c0.117-0.119,0.48-0.257,1.116-0.257c1.827,0,5.109,1.15,8.349,4.389c2.096,2.097,3.617,4.573,4.172,6.797
	C85.17,73.177,84.965,74.093,84.746,74.312z"/>
<path fill="none" stroke="#000000" stroke-width="2" stroke-linecap="round" stroke-linejoin="round" stroke-miterlimit="10" d="
	M38.684,15.852c-5.707-5.706-13.109-7.557-16.535-4.131c-3.423,3.423-1.572,10.823,4.134,16.531
	c5.707,5.705,13.109,7.557,16.534,4.134C46.24,28.962,44.391,21.559,38.684,15.852z M39.281,28.848
	c-0.118,0.119-0.48,0.255-1.116,0.255c-1.825,0-5.107-1.146-8.345-4.387c-2.099-2.098-3.621-4.577-4.176-6.799
	c-0.383-1.526-0.178-2.442,0.04-2.659c0.118-0.119,0.481-0.257,1.119-0.257c1.826,0,5.107,1.148,8.344,4.387
	c2.098,2.097,3.62,4.575,4.176,6.799C39.705,27.715,39.5,28.631,39.281,28.848z"/>
<path fill="none" stroke="#000000" stroke-width="2" stroke-linecap="round" stroke-linejoin="round" stroke-miterlimit="10" d="
	M38.165,29.103c-1.825,0-5.107-1.146-8.345-4.387c-2.099-2.098-3.621-4.577-4.176-6.799c-0.383-1.526-0.178-2.442,0.04-2.659
	c0.118-0.119,0.481-0.257,1.119-0.257c1.826,0,5.107,1.148,8.344,4.387c2.098,2.097,3.62,4.575,4.176,6.799
	c0.382,1.528,0.177,2.444-0.042,2.661C39.163,28.967,38.801,29.103,38.165,29.103z"/>
<path fill="none" stroke="#000000" stroke-width="2" stroke-linecap="round" stroke-linejoin="round" stroke-miterlimit="10" d="
	M83.63,74.568c-1.825,0-5.106-1.148-8.347-4.387c-4.459-4.46-4.817-8.776-4.132-9.46c0.117-0.119,0.48-0.257,1.116-0.257
	c1.827,0,5.109,1.15,8.349,4.389c2.096,2.097,3.617,4.573,4.172,6.797c0.382,1.526,0.177,2.442-0.042,2.661
	C84.628,74.431,84.264,74.568,83.63,74.568L83.63,74.568z"/>
<path fill="none" stroke="#000000" stroke-width="2" stroke-linecap="round" stroke-linejoin="round" stroke-miterlimit="10" d="
	M46.954,53.049c-4.236-4.237-7.974-8.777-11.273-13.531l-0.737,0.737c-1.903,1.903-4.203,3.155-6.63,3.789
	c3.563,5.371,7.705,10.47,12.439,15.203c4.733,4.733,9.832,8.878,15.204,12.439c0.632-2.429,1.885-4.729,3.788-6.63l0.738-0.739
	C55.729,61.021,51.188,57.283,46.954,53.049z"/>
<path fill="none" stroke="#000000" stroke-width="2" stroke-linecap="round" stroke-linejoin="round" stroke-miterlimit="10" d="
	M71.749,73.718c-5.707-5.707-7.559-13.108-4.136-16.531l-7.13,7.131l-0.738,0.739c-1.903,1.901-3.156,4.201-3.788,6.63
	c-5.372-3.562-10.471-7.706-15.204-12.439c-4.734-4.732-8.876-9.832-12.439-15.203c2.427-0.634,4.727-1.886,6.63-3.789l0.737-0.737
	l7.133-7.132c-3.425,3.425-10.825,1.571-16.532-4.134c-5.706-5.708-7.558-13.108-4.134-16.529l-7.87,7.868
	C11.426,22.443,10,26.184,10,29.923c0,1.905,0.372,3.807,1.114,5.591c4.814,11.638,11.914,22.548,21.371,32.001
	c9.456,9.457,20.362,16.558,32.001,21.372C66.271,89.628,68.173,90,70.076,90c3.74,0.001,7.48-1.427,10.333-4.279l7.872-7.868
	C84.854,81.275,77.455,79.422,71.749,73.718z"/>
</svg>
