<?xml version="1.0" encoding="utf-8"?>
<!-- Generator: Adobe Illustrator 16.0.0, SVG Export Plug-In . SVG Version: 6.00 Build 0)  -->
<!DOCTYPE svg PUBLIC "-//W3C//DTD SVG 1.0//EN" "http://www.w3.org/TR/2001/REC-SVG-20010904/DTD/svg10.dtd">
<svg version="1.0" id="Layer_1" xmlns="http://www.w3.org/2000/svg" xmlns:xlink="http://www.w3.org/1999/xlink" x="0px" y="0px"
	 width="100px" height="100px" viewBox="0 0 100 100" enable-background="new 0 0 100 100" xml:space="preserve">
<path fill="none" stroke="#000000" stroke-width="2" stroke-linecap="round" stroke-linejoin="round" stroke-miterlimit="10" d="
	M25,22.499h9.998H25z"/>
<rect x="10" y="29.999" fill="none" stroke="#000000" stroke-width="2" stroke-linecap="round" stroke-linejoin="round" stroke-miterlimit="10" width="39.999" height="40.001"/>
<path fill="none" stroke="#000000" stroke-width="2" stroke-linecap="round" stroke-linejoin="round" stroke-miterlimit="10" d="
	M10,22.5c0-4.143,3.359-7.5,7.5-7.5h24.999h0.003c4.141,0,7.5,3.357,7.5,7.5v55l0,0c0,4.141-3.359,7.5-7.5,7.5h-0.003H17.5
	c-4.141,0-7.5-3.359-7.5-7.5l0,0V22.5z"/>
<circle fill="none" stroke="#000000" stroke-width="2" stroke-linecap="round" stroke-linejoin="round" stroke-miterlimit="10" cx="30.001" cy="77.5" r="2.5"/>
<path fill="none" stroke="#000000" stroke-width="2" stroke-linecap="round" stroke-linejoin="round" stroke-miterlimit="10" d="
	M63.748,50h7.501H63.748z"/>
<polygon fill="none" stroke="#000000" stroke-width="2" stroke-linecap="round" stroke-linejoin="round" stroke-miterlimit="10" points="
	63.748,42.5 71.249,42.5 71.249,57.5 63.748,57.5 71.249,57.5 71.249,42.5 "/>
<polygon fill="none" stroke="#000000" stroke-width="2" stroke-linecap="round" stroke-linejoin="round" stroke-miterlimit="10" points="
	90,42.5 78.748,42.5 78.748,57.5 90,57.5 90,50 86.248,50 90,50 90,57.5 78.748,57.5 78.748,42.5 "/>
</svg>
