<?xml version="1.0" encoding="utf-8"?>
<!-- Generator: Adobe Illustrator 16.0.0, SVG Export Plug-In . SVG Version: 6.00 Build 0)  -->
<!DOCTYPE svg PUBLIC "-//W3C//DTD SVG 1.0//EN" "http://www.w3.org/TR/2001/REC-SVG-20010904/DTD/svg10.dtd">
<svg version="1.0" id="Layer_1" xmlns="http://www.w3.org/2000/svg" xmlns:xlink="http://www.w3.org/1999/xlink" x="0px" y="0px"
	 width="100px" height="100px" viewBox="0 0 100 100" enable-background="new 0 0 100 100" xml:space="preserve">
<path fill="none" stroke="#000000" stroke-width="2" stroke-linecap="round" stroke-linejoin="round" stroke-miterlimit="10" d="
	M29.455,89.988l-12.325-5.28c-1.547-0.665-3.785-2.179-4.974-3.369l0,0c-2.377-2.378-2.864-5.78-1.08-7.567
	c1.784-1.782,3.243-3.24,3.243-3.24l9.731-9.734c1.792-1.79,4.696-1.79,6.489,0.003l7.567,7.566
	c16.72-0.003,30.272-13.552,30.272-30.264l-7.565-7.566c-1.796-1.794-1.794-4.696-0.002-6.49l9.73-9.728
	c0,0,1.457-1.459,3.241-3.245c1.785-1.78,5.19-1.297,7.572,1.082l0,0c1.187,1.191,2.701,3.425,3.365,4.975L90,29.452
	C79.036,55.917,57.995,78.175,29.466,90L29.455,89.988z"/>
</svg>
