<?xml version="1.0" encoding="utf-8"?>
<!-- Generator: Adobe Illustrator 16.0.0, SVG Export Plug-In . SVG Version: 6.00 Build 0)  -->
<!DOCTYPE svg PUBLIC "-//W3C//DTD SVG 1.0//EN" "http://www.w3.org/TR/2001/REC-SVG-20010904/DTD/svg10.dtd">
<svg version="1.0" id="Layer_1" xmlns="http://www.w3.org/2000/svg" xmlns:xlink="http://www.w3.org/1999/xlink" x="0px" y="0px"
	 width="100px" height="100px" viewBox="0 0 100 100" enable-background="new 0 0 100 100" xml:space="preserve">
<path fill="none" stroke="#000000" stroke-width="2" stroke-linecap="round" stroke-linejoin="round" stroke-miterlimit="10" d="
	M25.001,70.002C25.001,72.762,27.24,75,30,75h40.001c2.763,0,4.998-2.238,4.998-5.002V25c0-2.76-2.239-4.999-4.998-4.999H30
	c-2.763,0-4.999,2.239-4.999,5.001V70.002z"/>
<path fill="none" stroke="#000000" stroke-width="2" stroke-linecap="round" stroke-linejoin="round" stroke-miterlimit="10" d="
	M46.25,82.5h7.5H46.25z"/>
<path fill="none" stroke="#000000" stroke-width="2" stroke-linecap="round" stroke-linejoin="round" stroke-miterlimit="10" d="
	M25.001,79.996V20c0-0.991,0.148-1.941,0.417-2.844l-8.03,0.984c-4.61,0.565-7.889,4.764-7.324,9.374l6.153,50.095
	c0.568,4.613,4.764,7.893,9.374,7.326l0.671-0.082C25.462,83.414,25.001,81.76,25.001,79.996z"/>
<path fill="none" stroke="#000000" stroke-width="2" stroke-linecap="round" stroke-linejoin="round" stroke-miterlimit="10" d="
	M74.999,79.996V20c0-0.991-0.147-1.941-0.417-2.844l8.031,0.984c4.609,0.565,7.889,4.764,7.323,9.374l-6.152,50.095
	c-0.568,4.613-4.765,7.893-9.374,7.326l-0.672-0.082C74.538,83.414,74.999,81.76,74.999,79.996z"/>
<path fill="none" stroke="#000000" stroke-width="2" stroke-linecap="round" stroke-linejoin="round" stroke-miterlimit="10" d="
	M70.001,75H30c-2.756,0-4.992-2.232-4.999-4.984v9.98C25.001,85.521,29.476,90,35.002,90l30-0.002c5.522,0,9.997-4.477,9.997-9.994
	V69.998C74.999,72.762,72.764,75,70.001,75z"/>
<path fill="none" stroke="#000000" stroke-width="2" stroke-linecap="round" stroke-linejoin="round" stroke-miterlimit="10" d="
	M65.002,10l-30.003,0.002c-5.522,0-9.998,4.478-9.998,9.998v5C25.001,22.24,27.237,20,30,20h40.001c2.759,0,4.998,2.239,4.998,4.999
	V20C74.999,14.479,70.524,10,65.002,10z"/>
</svg>
