<?xml version="1.0" encoding="utf-8"?>
<!-- Generator: Adobe Illustrator 16.0.0, SVG Export Plug-In . SVG Version: 6.00 Build 0)  -->
<!DOCTYPE svg PUBLIC "-//W3C//DTD SVG 1.0//EN" "http://www.w3.org/TR/2001/REC-SVG-20010904/DTD/svg10.dtd">
<svg version="1.0" id="Layer_1" xmlns="http://www.w3.org/2000/svg" xmlns:xlink="http://www.w3.org/1999/xlink" x="0px" y="0px"
	 width="100px" height="100px" viewBox="0 0 100 100" enable-background="new 0 0 100 100" xml:space="preserve">
<polygon fill="none" stroke="#000000" stroke-width="2" stroke-linecap="round" stroke-linejoin="round" stroke-miterlimit="10" points="
	34.103,60.39 37.265,63.557 15.356,85.467 10,80.108 "/>
<polygon fill="none" stroke="#000000" stroke-width="2" stroke-linecap="round" stroke-linejoin="round" stroke-miterlimit="10" points="
	60.393,34.102 63.56,37.267 85.467,15.357 80.108,10 "/>
<path fill="none" stroke="#000000" stroke-width="2" stroke-linecap="round" stroke-linejoin="round" stroke-miterlimit="10" d="
	M74.511,41.801c-5.918,14.292-17.288,26.32-32.705,32.71h-0.007c-0.004-3.965-1.513-7.93-4.537-10.955L15.354,85.463
	C18.157,88.264,22.03,90,26.305,90c16.299-0.006,32.605-6.218,45.043-18.654C83.784,58.908,89.994,42.607,90,26.308
	c0-4.275-1.732-8.147-4.537-10.955L63.56,37.264C66.581,40.289,70.55,41.797,74.511,41.801z"/>
<path fill="none" stroke="#000000" stroke-width="2" stroke-linecap="round" stroke-linejoin="round" stroke-miterlimit="10" d="
	M41.795,74.512v4.383V74.512z"/>
<path fill="none" stroke="#000000" stroke-width="2" stroke-linecap="round" stroke-linejoin="round" stroke-miterlimit="10" d="
	M74.511,41.797h4.383H74.511z"/>
</svg>
