<?xml version="1.0" encoding="utf-8"?>
<!-- Generator: Adobe Illustrator 16.0.0, SVG Export Plug-In . SVG Version: 6.00 Build 0)  -->
<!DOCTYPE svg PUBLIC "-//W3C//DTD SVG 1.0//EN" "http://www.w3.org/TR/2001/REC-SVG-20010904/DTD/svg10.dtd">
<svg version="1.0" id="Layer_1" xmlns="http://www.w3.org/2000/svg" xmlns:xlink="http://www.w3.org/1999/xlink" x="0px" y="0px"
	 width="100px" height="100px" viewBox="0 0 100 100" enable-background="new 0 0 100 100" xml:space="preserve">
<polygon fill="none" stroke="#000000" stroke-width="2" stroke-linecap="round" stroke-linejoin="round" stroke-miterlimit="10" points="
	34.855,84.563 20.875,70.583 27.088,64.37 34.855,62.817 50.39,47.283 51.942,39.517 61.262,30.195 75.243,44.177 "/>
<rect x="29.497" y="38.628" transform="matrix(0.7071 0.7071 -0.7071 0.7071 45.9718 -11.7636)" fill="none" stroke="#000000" stroke-width="2" stroke-linecap="round" stroke-linejoin="round" stroke-miterlimit="10" width="15.379" height="21.969"/>
<polygon fill="none" stroke="#000000" stroke-width="2" stroke-linecap="round" stroke-linejoin="round" stroke-miterlimit="10" points="
	50.39,19.321 41.068,28.643 39.516,36.408 50.39,47.283 51.942,39.514 61.262,30.195 "/>
<polygon fill="none" stroke="#000000" stroke-width="2" stroke-linecap="round" stroke-linejoin="round" stroke-miterlimit="10" points="
	23.982,51.943 16.213,53.496 10,59.709 20.874,70.583 27.088,64.37 34.855,62.817 "/>
<polygon fill="none" stroke="#000000" stroke-width="2" stroke-linecap="round" stroke-linejoin="round" stroke-miterlimit="10" points="
	70.586,39.517 65.924,34.856 76.02,26.312 79.126,29.417 "/>
<path fill="none" stroke="#000000" stroke-width="2" stroke-linecap="round" stroke-linejoin="round" stroke-miterlimit="10" d="
	M90,15.438L77.574,27.865L90,15.438z"/>
</svg>
