<?xml version="1.0" encoding="utf-8"?>
<!-- Generator: Adobe Illustrator 16.0.0, SVG Export Plug-In . SVG Version: 6.00 Build 0)  -->
<!DOCTYPE svg PUBLIC "-//W3C//DTD SVG 1.0//EN" "http://www.w3.org/TR/2001/REC-SVG-20010904/DTD/svg10.dtd">
<svg version="1.0" id="Layer_1" xmlns="http://www.w3.org/2000/svg" xmlns:xlink="http://www.w3.org/1999/xlink" x="0px" y="0px"
	 width="100px" height="100px" viewBox="0 0 100 100" enable-background="new 0 0 100 100" xml:space="preserve">
<path fill="none" stroke="#000000" stroke-width="2" stroke-linecap="round" stroke-linejoin="round" stroke-miterlimit="10" d="
	M21.721,58.203c-0.97,2.347,0.142,5.04,2.489,6.012l33.982,14.092c2.348,0.971,5.036-0.146,6.011-2.494l15.833-38.266
	c0.974-2.346-0.142-5.04-2.487-6.012l-33.984-14.09c-2.348-0.972-5.036,0.145-6.007,2.492L21.721,58.203z"/>
<path fill="none" stroke="#000000" stroke-width="2" stroke-linecap="round" stroke-linejoin="round" stroke-miterlimit="10" d="
	M35.376,76.318l6.372,2.643L35.376,76.318z"/>
<path fill="none" stroke="#000000" stroke-width="2" stroke-linecap="round" stroke-linejoin="round" stroke-miterlimit="10" d="
	M44.294,27.711l8.495,3.521L44.294,27.711z"/>
<path fill="none" stroke="#000000" stroke-width="2" stroke-linecap="round" stroke-linejoin="round" stroke-miterlimit="10" d="
	M40.772,36.214L66.261,46.78L40.772,36.214z"/>
<path fill="none" stroke="#000000" stroke-width="2" stroke-linecap="round" stroke-linejoin="round" stroke-miterlimit="10" d="
	M37.255,44.718l16.993,7.046L37.255,44.718z"/>
<path fill="none" stroke="#000000" stroke-width="2" stroke-linecap="round" stroke-linejoin="round" stroke-miterlimit="10" d="
	M58.192,78.307L24.21,64.215c-2.341-0.972-3.456-3.655-2.492-5.998l-3.514,8.486c-1.945,4.699,0.282,10.084,4.977,12.03
	l25.489,10.563c4.691,1.946,10.068-0.282,12.013-4.975l3.521-8.509C63.229,78.161,60.54,79.277,58.192,78.307z"/>
<path fill="none" stroke="#000000" stroke-width="2" stroke-linecap="round" stroke-linejoin="round" stroke-miterlimit="10" d="
	M76.825,21.27L51.333,10.703c-4.694-1.944-10.072,0.286-12.016,4.981l-1.759,4.251c0.971-2.348,3.659-3.462,6.007-2.49l33.984,14.09
	c2.346,0.972,3.461,3.666,2.487,6.012l1.763-4.251C83.74,28.601,81.514,23.215,76.825,21.27z"/>
</svg>
