<?xml version="1.0" encoding="utf-8"?>
<!-- Generator: Adobe Illustrator 16.0.0, SVG Export Plug-In . SVG Version: 6.00 Build 0)  -->
<!DOCTYPE svg PUBLIC "-//W3C//DTD SVG 1.0//EN" "http://www.w3.org/TR/2001/REC-SVG-20010904/DTD/svg10.dtd">
<svg version="1.0" id="Layer_1" xmlns="http://www.w3.org/2000/svg" xmlns:xlink="http://www.w3.org/1999/xlink" x="0px" y="0px"
	 width="100px" height="100px" viewBox="0 0 100 100" enable-background="new 0 0 100 100" xml:space="preserve">
<path fill="none" stroke="#000000" stroke-width="2" stroke-linecap="round" stroke-linejoin="round" stroke-miterlimit="10" d="
	M42.215,68.282c14.394,0,26.065-11.671,26.065-26.069l-0.004-0.003c-4.799,0-8.687-3.889-8.688-8.688l0.003,0.004
	c-3.597-3.598-1.653-11.377,4.346-17.378c5.999-5.997,13.776-7.941,17.375-4.344C86.112,11.81,90,15.697,90,20.496
	C90.002,58.882,58.881,90.003,20.493,90c-4.797,0-8.686-3.889-8.687-8.688c-3.598-3.597-1.654-11.377,4.343-17.374
	c5.999-6.001,13.78-7.944,17.378-4.347l-0.003-0.004c4.795,0,8.684,3.888,8.687,8.69L42.215,68.282z"/>
</svg>
