<?xml version="1.0" encoding="utf-8"?>
<!-- Generator: Adobe Illustrator 16.0.0, SVG Export Plug-In . SVG Version: 6.00 Build 0)  -->
<!DOCTYPE svg PUBLIC "-//W3C//DTD SVG 1.0//EN" "http://www.w3.org/TR/2001/REC-SVG-20010904/DTD/svg10.dtd">
<svg version="1.0" id="Layer_1" xmlns="http://www.w3.org/2000/svg" xmlns:xlink="http://www.w3.org/1999/xlink" x="0px" y="0px"
	 width="100px" height="100px" viewBox="0 0 100 100" enable-background="new 0 0 100 100" xml:space="preserve">
<path fill="none" stroke="#000000" stroke-width="2" stroke-linecap="round" stroke-linejoin="round" stroke-miterlimit="10" d="
	M34.591,79.992l-9.243-3.961c-1.161-0.5-2.839-1.633-3.731-2.525l0,0c-1.783-1.785-2.15-4.338-0.81-5.678
	c1.337-1.336,2.433-2.43,2.433-2.43l7.296-7.299c1.344-1.34,3.521-1.344,4.869,0l5.675,5.678
	c12.539-0.004,22.702-10.168,22.702-22.7L58.107,35.4c-1.344-1.344-1.344-3.521,0-4.864l7.298-7.297c0,0,1.092-1.092,2.433-2.432
	c1.337-1.337,3.893-0.972,5.681,0.81l0,0c0.889,0.892,2.025,2.569,2.521,3.73l3.962,9.243C71.778,54.438,55.996,71.131,34.602,80
	L34.591,79.992z"/>
<path fill="none" stroke="#000000" stroke-width="2" stroke-linecap="round" stroke-linejoin="round" stroke-miterlimit="10" d="
	M24.432,75.566L13.535,86.463C11.59,88.404,10,87.748,10,84.998V20C10,14.502,14.499,10,20.001,10h60.001C85.502,10,90,14.502,90,20
	v60c0,5.502-4.498,10-9.998,10H19.999h60.003C85.502,90,90,85.502,90,80V20C90,14.502,85.502,10,80.002,10H20.001
	C14.499,10,10,14.502,10,20v64.998c0,2.75,1.59,3.406,3.535,1.465L24.432,75.566z"/>
</svg>
