<?xml version="1.0" encoding="utf-8"?>
<!-- Generator: Adobe Illustrator 16.0.0, SVG Export Plug-In . SVG Version: 6.00 Build 0)  -->
<!DOCTYPE svg PUBLIC "-//W3C//DTD SVG 1.0//EN" "http://www.w3.org/TR/2001/REC-SVG-20010904/DTD/svg10.dtd">
<svg version="1.0" id="Layer_1" xmlns="http://www.w3.org/2000/svg" xmlns:xlink="http://www.w3.org/1999/xlink" x="0px" y="0px"
	 width="100px" height="100px" viewBox="0 0 100 100" enable-background="new 0 0 100 100" xml:space="preserve">
<path fill="none" stroke="#000000" stroke-width="2" stroke-linecap="round" stroke-linejoin="round" stroke-miterlimit="10" d="
	M82.505,14.267L78.239,10h-8.527L56.918,22.796l-0.002,8.529l4.265,4.266l-0.003-0.003c2.356,2.355,6.177,2.355,8.532,0l0.002,0.003
	c0,18.841-15.278,34.12-34.121,34.12l-0.005-0.003c2.355-2.355,2.355-6.175,0-8.528h0.003l-4.267-4.263h-8.528L10,69.711v8.529
	l4.265,4.267C19.26,87.5,25.807,90,32.359,90C59.534,78.744,79.565,57.552,90,32.361C89.998,25.809,87.501,19.265,82.505,14.267z"/>
</svg>
