<?xml version="1.0" encoding="utf-8"?>
<!-- Generator: Adobe Illustrator 16.0.0, SVG Export Plug-In . SVG Version: 6.00 Build 0)  -->
<!DOCTYPE svg PUBLIC "-//W3C//DTD SVG 1.0//EN" "http://www.w3.org/TR/2001/REC-SVG-20010904/DTD/svg10.dtd">
<svg version="1.0" id="Layer_1" xmlns="http://www.w3.org/2000/svg" xmlns:xlink="http://www.w3.org/1999/xlink" x="0px" y="0px"
	 width="100px" height="100px" viewBox="0 0 100 100" enable-background="new 0 0 100 100" xml:space="preserve">
<path fill="none" stroke="#000000" stroke-width="2" stroke-linecap="round" stroke-linejoin="round" stroke-miterlimit="10" d="
	M25,70c0,2.762,2.239,5,4.998,5h40.003C72.766,75,75,72.76,75,70V25c0-2.762-2.238-4.999-4.999-4.999L29.998,20
	C27.235,20,25,22.239,25,25.001V70z"/>
<path fill="none" stroke="#000000" stroke-width="2" stroke-linecap="round" stroke-linejoin="round" stroke-miterlimit="10" d="
	M46.25,82.5h7.5H46.25z"/>
<path fill="none" stroke="#000000" stroke-width="2" stroke-linecap="round" stroke-linejoin="round" stroke-miterlimit="10" d="
	M70.001,75H29.998c-2.759,0-4.995-2.234-4.998-4.992v9.986C25,85.521,29.475,90,35.001,90l30.001-0.004
	c5.521,0,9.997-4.473,9.997-9.992V70C75,72.76,72.766,75,70.001,75z"/>
<path fill="none" stroke="#000000" stroke-width="2" stroke-linecap="round" stroke-linejoin="round" stroke-miterlimit="10" d="
	M65.003,10l-30.005,0.002C29.475,10.002,25,14.477,25,20V25C25,22.239,27.235,20,29.998,20l40.003,0.002
	C72.762,20.001,75,22.239,75,25V20C75,14.477,70.524,10,65.003,10z"/>
</svg>
