<?xml version="1.0" encoding="utf-8"?>
<!-- Generator: Adobe Illustrator 16.0.0, SVG Export Plug-In . SVG Version: 6.00 Build 0)  -->
<!DOCTYPE svg PUBLIC "-//W3C//DTD SVG 1.0//EN" "http://www.w3.org/TR/2001/REC-SVG-20010904/DTD/svg10.dtd">
<svg version="1.0" id="Layer_1" xmlns="http://www.w3.org/2000/svg" xmlns:xlink="http://www.w3.org/1999/xlink" x="0px" y="0px"
	 width="100px" height="100px" viewBox="0 0 100 100" enable-background="new 0 0 100 100" xml:space="preserve">
<path fill="none" stroke="#000000" stroke-width="2" stroke-linecap="round" stroke-linejoin="round" stroke-miterlimit="10" d="
	M80.939,55.861l-7.8-17.546l-8.142-0.816v-3.606l0.004-0.004H34.999l0.003,3.614l-8.141,0.813l-7.8,17.546
	C16.828,60.888,15.001,69.5,15.001,75v7.5h70V75C85.001,69.5,83.176,60.888,80.939,55.861z M50.002,67.499
	C40.337,67.499,32.5,61.904,32.5,55c0-6.903,7.836-12.499,17.501-12.499c9.663,0,17.497,5.596,17.497,12.499
	C67.499,61.904,59.665,67.499,50.002,67.499z"/>
<path fill="none" stroke="#000000" stroke-width="2" stroke-linecap="round" stroke-linejoin="round" stroke-miterlimit="10" d="
	M86.342,25.051C77.036,15.76,64.192,10,49.998,10c-14.19,0-27.034,5.76-36.336,15.051c-2.439,2.439-3.658,5.64-3.662,8.837v6.116
	l25.001-2.501l-0.003-3.614c0-3.448-1.402-6.573-3.659-8.837c11.532-4.778,24.877-5.154,37.321-0.003l0.004,0.003
	c-2.26,2.264-3.662,5.392-3.662,8.837l-0.004,0.004v3.606L90,40.004v-6.112v-0.004C89.997,30.691,88.777,27.491,86.342,25.051z"/>
<ellipse fill="none" stroke="#000000" stroke-width="2" stroke-linecap="round" stroke-linejoin="round" stroke-miterlimit="10" cx="50" cy="55" rx="17.499" ry="12.499"/>
<polygon fill="none" stroke="#000000" stroke-width="2" stroke-linecap="round" stroke-linejoin="round" stroke-miterlimit="10" points="
	77.501,90 70.002,90 62.501,82.5 77.501,82.5 "/>
<polygon fill="none" stroke="#000000" stroke-width="2" stroke-linecap="round" stroke-linejoin="round" stroke-miterlimit="10" points="
	22.5,90 30,90 37.5,82.5 22.5,82.5 "/>
</svg>
