<?xml version="1.0" encoding="utf-8"?>
<!-- Generator: Adobe Illustrator 16.0.0, SVG Export Plug-In . SVG Version: 6.00 Build 0)  -->
<!DOCTYPE svg PUBLIC "-//W3C//DTD SVG 1.0//EN" "http://www.w3.org/TR/2001/REC-SVG-20010904/DTD/svg10.dtd">
<svg version="1.0" id="Layer_1" xmlns="http://www.w3.org/2000/svg" xmlns:xlink="http://www.w3.org/1999/xlink" x="0px" y="0px"
	 width="100px" height="100px" viewBox="0 0 100 100" enable-background="new 0 0 100 100" xml:space="preserve">
<path fill="none" stroke="#000000" stroke-width="2" stroke-linecap="round" stroke-linejoin="round" stroke-miterlimit="10" d="
	M83.75,10h-67.5v80h60V30h-0.003c4.144,0,7.503-3.358,7.503-7.499V10z"/>
<path fill="none" stroke="#000000" stroke-width="2" stroke-linecap="round" stroke-linejoin="round" stroke-miterlimit="10" d="
	M76.25,35l-0.003,20c4.144,0,7.503-3.359,7.503-7.498V35H76.25z"/>
<path fill="none" stroke="#000000" stroke-width="2" stroke-linecap="round" stroke-linejoin="round" stroke-miterlimit="10" d="
	M76.25,59.999l-0.003,20c4.144,0,7.503-3.359,7.503-7.498V59.999H76.25z"/>
<path fill="none" stroke="#000000" stroke-width="2" stroke-linecap="round" stroke-linejoin="round" stroke-miterlimit="10" d="
	M26.252,80.001h39.997H26.252z"/>
<path fill="none" stroke="#000000" stroke-width="2" stroke-linecap="round" stroke-linejoin="round" stroke-miterlimit="10" d="
	M26.252,72.501h39.997H26.252z"/>
<path fill="none" stroke="#000000" stroke-width="2" stroke-linecap="round" stroke-linejoin="round" stroke-miterlimit="10" d="
	M26.252,65h39.997H26.252z"/>
<path fill="none" stroke="#000000" stroke-width="2" stroke-linecap="round" stroke-linejoin="round" stroke-miterlimit="10" d="
	M26.252,57.5h39.997H26.252z"/>
<path fill="none" stroke="#000000" stroke-width="2" stroke-linecap="round" stroke-linejoin="round" stroke-miterlimit="10" d="
	M35.223,41.029c7.148,7.148,15.113,10.768,17.794,8.087l3.234-3.233l-7.279-5.663l-0.81,0.81c-1.34,1.34-3.511,1.342-4.854,0
	l-4.041-4.045l-4.044-4.043c-1.341-1.342-1.341-3.512,0-4.852l0.81-0.811l-5.664-7.28l-3.234,3.236
	C24.453,25.916,28.074,33.88,35.223,41.029L35.223,41.029z"/>
</svg>
