<?xml version="1.0" encoding="utf-8"?>
<!-- Generator: Adobe Illustrator 16.0.0, SVG Export Plug-In . SVG Version: 6.00 Build 0)  -->
<!DOCTYPE svg PUBLIC "-//W3C//DTD SVG 1.0//EN" "http://www.w3.org/TR/2001/REC-SVG-20010904/DTD/svg10.dtd">
<svg version="1.0" id="Layer_1" xmlns="http://www.w3.org/2000/svg" xmlns:xlink="http://www.w3.org/1999/xlink" x="0px" y="0px"
	 width="100px" height="100px" viewBox="0 0 100 100" enable-background="new 0 0 100 100" xml:space="preserve">
<path fill="none" stroke="#000000" stroke-width="2" stroke-linecap="round" stroke-linejoin="round" stroke-miterlimit="10" d="
	M33.921,57.603c0,0-1.333-1.333-2.963-2.962c-1.626-1.627-4.293-1.627-5.922,0.003L11.223,68.458c-1.63,1.63-1.63,4.293,0,5.919
	c1.629,1.63,2.959,2.963,2.959,2.963L33.921,57.603z"/>
<path fill="none" stroke="#000000" stroke-width="2" stroke-linecap="round" stroke-linejoin="round" stroke-miterlimit="10" d="
	M77.342,14.182c0,0-1.334-1.334-2.963-2.963c-1.625-1.626-4.292-1.626-5.921,0.003L54.643,25.037c-1.626,1.629-1.626,4.292,0,5.918
	c1.63,1.63,2.963,2.963,2.963,2.963L77.342,14.182z"/>
<path fill="none" stroke="#000000" stroke-width="2" stroke-linecap="round" stroke-linejoin="round" stroke-miterlimit="10" d="
	M33.921,57.603c-3.27,3.27-3.27,8.571,0,11.845l3.948,3.948l-7.896,7.893l-3.944-3.948c-3.27-3.273-8.571-3.273-11.844,0
	L33.921,57.603z"/>
<path fill="none" stroke="#000000" stroke-width="2" stroke-linecap="round" stroke-linejoin="round" stroke-miterlimit="10" d="
	M41.813,89.181L41.813,89.181c1.092,1.092,2.859,1.092,3.948,0c1.092-1.089,1.089-2.856,0-3.945l0,0l-9.867-9.87l-3.948,3.948
	L41.813,89.181z"/>
<path fill="none" stroke="#000000" stroke-width="2" stroke-linecap="round" stroke-linejoin="round" stroke-miterlimit="10" d="
	M77.342,14.182c-3.27,3.272-3.27,8.574,0,11.844l3.944,3.948l-7.896,7.893l-3.943-3.951c-3.27-3.267-8.571-3.27-11.841,0
	L77.342,14.182z"/>
<path fill="none" stroke="#000000" stroke-width="2" stroke-linecap="round" stroke-linejoin="round" stroke-miterlimit="10" d="
	M85.234,45.762L85.234,45.762c1.092,1.089,2.859,1.089,3.948,0c1.092-1.092,1.088-2.859,0-3.947l0,0l-9.87-9.87l-3.948,3.951
	L85.234,45.762z"/>
<path fill="none" stroke="#000000" stroke-width="2" stroke-linecap="round" stroke-linejoin="round" stroke-miterlimit="10" d="
	M41.813,81.288l5.922-5.923L41.813,81.288z"/>
<path fill="none" stroke="#000000" stroke-width="2" stroke-linecap="round" stroke-linejoin="round" stroke-miterlimit="10" d="
	M75.367,47.736l5.922-5.922L75.367,47.736z"/>
<path fill="none" stroke="#000000" stroke-width="2" stroke-linecap="round" stroke-linejoin="round" stroke-miterlimit="10" d="
	M67.473,47.736c2.17-2.174,5.725-2.174,7.895,0c2.171,2.17,2.171,5.722,0,7.893L55.632,75.365c-2.171,2.174-5.726,2.174-7.896,0
	c-2.17-2.17-2.17-5.722,0-7.893L67.473,47.736z"/>
</svg>
