<?xml version="1.0" encoding="utf-8"?>
<!-- Generator: Adobe Illustrator 16.0.0, SVG Export Plug-In . SVG Version: 6.00 Build 0)  -->
<!DOCTYPE svg PUBLIC "-//W3C//DTD SVG 1.0//EN" "http://www.w3.org/TR/2001/REC-SVG-20010904/DTD/svg10.dtd">
<svg version="1.0" id="Layer_1" xmlns="http://www.w3.org/2000/svg" xmlns:xlink="http://www.w3.org/1999/xlink" x="0px" y="0px"
	 width="100px" height="100px" viewBox="0 0 100 100" enable-background="new 0 0 100 100" xml:space="preserve">
<path fill="none" stroke="#000000" stroke-width="2" stroke-linecap="round" stroke-linejoin="round" stroke-miterlimit="10" d="
	M82.291,12.106l-4.737-1.867c-1.378-0.542-3.362-0.13-4.406,0.917L57.504,26.798c4.763,4.763,7.714,11.336,7.711,18.605
	c-0.005,0.004-19.804,19.8-19.804,19.803c-6.74,0.004-13.472-2.568-18.613-7.705c0,0-0.003,0-0.003-0.004
	c0,0-0.856,0.852-1.904,1.899L11.155,73.141c-1.047,1.047-1.459,3.031-0.915,4.409l1.863,4.729
	c5.139,5.138,11.873,7.706,18.61,7.706L30.725,90C58.658,78.421,79.263,56.622,90,30.711C90,23.447,87.053,16.869,82.291,12.106z"/>
</svg>
