<?xml version="1.0" encoding="utf-8"?>
<!-- Generator: Adobe Illustrator 16.0.0, SVG Export Plug-In . SVG Version: 6.00 Build 0)  -->
<!DOCTYPE svg PUBLIC "-//W3C//DTD SVG 1.0//EN" "http://www.w3.org/TR/2001/REC-SVG-20010904/DTD/svg10.dtd">
<svg version="1.0" id="Layer_1" xmlns="http://www.w3.org/2000/svg" xmlns:xlink="http://www.w3.org/1999/xlink" x="0px" y="0px"
	 width="100px" height="100px" viewBox="0 0 100 100" enable-background="new 0 0 100 100" xml:space="preserve">
<path fill="none" stroke="#000000" stroke-width="2" stroke-linecap="round" stroke-linejoin="round" stroke-miterlimit="10" d="
	M85.467,15.358L85.467,15.358L80.11,10L60.392,34.102l3.165,3.164h0.002c3.022,3.021,6.989,4.531,10.952,4.534
	c-5.917,14.294-17.288,26.32-32.705,32.712H41.8c-0.003-3.965-1.513-7.934-4.536-10.954l0.002-0.004l-3.164-3.165L10,80.107
	l5.354,5.354l0,0l0.003,0.004l0,0C18.165,88.265,22.034,90,26.308,90c16.297-0.008,32.602-6.218,45.042-18.657
	C83.785,58.908,89.994,42.605,90,26.308C90,22.034,88.267,18.166,85.467,15.358z"/>
</svg>
