<?xml version="1.0" encoding="utf-8"?>
<!-- Generator: Adobe Illustrator 16.0.0, SVG Export Plug-In . SVG Version: 6.00 Build 0)  -->
<!DOCTYPE svg PUBLIC "-//W3C//DTD SVG 1.0//EN" "http://www.w3.org/TR/2001/REC-SVG-20010904/DTD/svg10.dtd">
<svg version="1.0" id="Layer_1" xmlns="http://www.w3.org/2000/svg" xmlns:xlink="http://www.w3.org/1999/xlink" x="0px" y="0px"
	 width="100px" height="100px" viewBox="0 0 100 100" enable-background="new 0 0 100 100" xml:space="preserve">
<path fill="none" stroke="#000000" stroke-width="2" stroke-linecap="round" stroke-linejoin="round" stroke-miterlimit="10" d="
	M38.45,47.033c0,15.163,4.609,27.451,10.295,27.451h6.857L53.887,60.76h-1.716c-2.84,0-5.145-2.305-5.145-5.147l0.004-8.579
	l-0.004-8.58c0-2.843,2.305-5.144,5.145-5.146l1.716-0.002l1.716-13.725h-6.857C43.059,19.582,38.45,31.87,38.45,47.033
	L38.45,47.033z"/>
<path fill="none" stroke="#000000" stroke-width="2" stroke-linecap="round" stroke-linejoin="round" stroke-miterlimit="10" d="
	M33.102,86.263c-9.275-4.327-16.901-12.192-20.679-22.571c-7.553-20.76,3.145-43.714,23.899-51.269
	c20.754-7.555,43.699,3.148,51.256,23.907c7.554,20.761-3.147,43.711-23.902,51.27c-4.463,1.622-9.023,2.387-13.511,2.4h-0.162
	V74.484V90h0.162c4.488-0.014,9.048-0.778,13.511-2.4c20.755-7.559,31.456-30.509,23.902-51.27
	C80.021,15.571,57.075,4.868,36.321,12.423C15.567,19.977,4.87,42.932,12.422,63.691C16.201,74.07,23.827,81.936,33.102,86.263z"/>
</svg>
