<?xml version="1.0" encoding="utf-8"?>
<!-- Generator: Adobe Illustrator 16.0.0, SVG Export Plug-In . SVG Version: 6.00 Build 0)  -->
<!DOCTYPE svg PUBLIC "-//W3C//DTD SVG 1.0//EN" "http://www.w3.org/TR/2001/REC-SVG-20010904/DTD/svg10.dtd">
<svg version="1.0" id="Layer_1" xmlns="http://www.w3.org/2000/svg" xmlns:xlink="http://www.w3.org/1999/xlink" x="0px" y="0px"
	 width="100px" height="100px" viewBox="0 0 100 100" enable-background="new 0 0 100 100" xml:space="preserve">
<path fill="none" stroke="#000000" stroke-width="2" stroke-linecap="round" stroke-linejoin="round" stroke-miterlimit="10" d="
	M43.603,37.838c-7.687,7.688-20.149,7.686-27.835,0C8.077,30.149,8.079,17.686,15.766,10L43.603,37.838z"/>
<path fill="none" stroke="#000000" stroke-width="2" stroke-linecap="round" stroke-linejoin="round" stroke-miterlimit="10" d="
	M90,84.238c-7.688,7.683-20.147,7.683-27.835,0c-7.691-7.691-7.691-20.153-0.002-27.84L90,84.238z"/>
<path fill="none" stroke="#000000" stroke-width="2" stroke-linecap="round" stroke-linejoin="round" stroke-miterlimit="10" d="
	M15.767,37.838c4.782,4.779,11.412,6.585,17.591,5.417c5.892,9.821,13.995,17.737,23.388,23.379
	c-1.172,6.184,0.634,12.816,5.417,17.6c-20.281-8.392-37.34-24.52-46.401-46.395L15.767,37.838z"/>
<polygon fill="none" stroke="#000000" stroke-width="2" stroke-linecap="round" stroke-linejoin="round" stroke-miterlimit="10" points="
	38.963,33.199 20.405,14.641 29.684,10 43.603,23.92 "/>
<polygon fill="none" stroke="#000000" stroke-width="2" stroke-linecap="round" stroke-linejoin="round" stroke-miterlimit="10" points="
	85.359,79.596 66.8,61.039 76.08,56.398 90,70.317 "/>
</svg>
