<?xml version="1.0" encoding="utf-8"?>
<!-- Generator: Adobe Illustrator 16.0.0, SVG Export Plug-In . SVG Version: 6.00 Build 0)  -->
<!DOCTYPE svg PUBLIC "-//W3C//DTD SVG 1.0//EN" "http://www.w3.org/TR/2001/REC-SVG-20010904/DTD/svg10.dtd">
<svg version="1.0" id="Layer_1" xmlns="http://www.w3.org/2000/svg" xmlns:xlink="http://www.w3.org/1999/xlink" x="0px" y="0px"
	 width="100px" height="100px" viewBox="0 0 100 100" enable-background="new 0 0 100 100" xml:space="preserve">
<path fill="none" stroke="#000000" stroke-width="2" stroke-linecap="round" stroke-linejoin="round" stroke-miterlimit="10" d="
	M67.5,10h-35c-4.143,0-7.5,3.357-7.5,7.5v65c0,4.143,3.357,7.5,7.5,7.5h35c4.143,0,7.5-3.357,7.5-7.5v-65
	C75,13.358,71.643,10,67.5,10z M43.75,25h-7.5l0,0c-2.07,0-3.75-1.68-3.75-3.75c0-2.072,1.679-3.75,3.75-3.75
	c0.002,0,0.005,0,0.009,0h7.482c0.003,0,0.005,0,0.009,0c2.07,0,3.75,1.678,3.75,3.75C47.5,23.321,45.82,25,43.75,25z"/>
<path fill="none" stroke="#000000" stroke-width="2" stroke-linecap="round" stroke-linejoin="round" stroke-miterlimit="10" d="
	M47.5,21.25c0-2.072-1.68-3.75-3.75-3.75c-0.003,0-0.005,0-0.009,0h-7.482c-0.003,0-0.007,0-0.009,0c-2.07,0-3.75,1.678-3.75,3.75
	c0,2.07,1.679,3.75,3.75,3.75l0,0l0,0h7.5l0,0C45.82,25,47.5,23.321,47.5,21.25z"/>
</svg>
