<?xml version="1.0" encoding="utf-8"?>
<!-- Generator: Adobe Illustrator 16.0.0, SVG Export Plug-In . SVG Version: 6.00 Build 0)  -->
<!DOCTYPE svg PUBLIC "-//W3C//DTD SVG 1.0//EN" "http://www.w3.org/TR/2001/REC-SVG-20010904/DTD/svg10.dtd">
<svg version="1.0" id="Layer_1" xmlns="http://www.w3.org/2000/svg" xmlns:xlink="http://www.w3.org/1999/xlink" x="0px" y="0px"
	 width="100px" height="100px" viewBox="0 0 100 100" enable-background="new 0 0 100 100" xml:space="preserve">
<path fill="none" stroke="#000000" stroke-width="2" stroke-linecap="round" stroke-linejoin="round" stroke-miterlimit="10" d="
	M89.994,26.385c0.021-3.99-1.49-7.984-4.533-11.026L80.106,10L58.197,31.912l5.357,5.354l0.002-0.004
	c3.877,3.876,9.293,5.255,14.279,4.163c-0.037,0.012-0.077,0.03-0.114,0.038c-4.659,7.055-10.09,13.746-16.301,19.956l-0.004,0.005
	c-6.211,6.21-12.902,11.641-19.956,16.299c-0.008,0.046-0.031,0.085-0.042,0.125c1.099-4.989-0.279-10.41-4.16-14.289l-0.003,0.006
	l0.005-0.006l-5.353-5.358L10,80.107l5.353,5.354c3.045,3.046,7.042,4.554,11.035,4.535c-0.017,0-0.031,0.004-0.047,0.004
	c16.284-0.019,32.574-6.229,45.001-18.657C83.777,58.908,89.987,42.608,90,26.315C90,26.341,89.994,26.36,89.994,26.385z
	 M28.021,89.892c-0.007,0.005-0.015,0.005-0.023,0.005C28.007,89.896,28.014,89.896,28.021,89.892z M89.89,28.061
	c-0.008,0.048-0.015,0.099-0.022,0.146C89.875,28.16,89.884,28.109,89.89,28.061z"/>
</svg>
