<?xml version="1.0" encoding="utf-8"?>
<!-- Generator: Adobe Illustrator 16.0.0, SVG Export Plug-In . SVG Version: 6.00 Build 0)  -->
<!DOCTYPE svg PUBLIC "-//W3C//DTD SVG 1.0//EN" "http://www.w3.org/TR/2001/REC-SVG-20010904/DTD/svg10.dtd">
<svg version="1.0" id="Layer_1" xmlns="http://www.w3.org/2000/svg" xmlns:xlink="http://www.w3.org/1999/xlink" x="0px" y="0px"
	 width="100px" height="100px" viewBox="0 0 100 100" enable-background="new 0 0 100 100" xml:space="preserve">
<path fill="none" stroke="#000000" stroke-width="2" stroke-linecap="round" stroke-linejoin="round" stroke-miterlimit="10" d="
	M68.829,59.862l-8.965,1.791L38.347,40.135l1.793-8.962L32.965,24L24,32.964l0,0c3.88,9.393,9.605,18.18,17.231,25.805
	c7.622,7.621,16.423,13.36,25.805,17.228L67.038,76L76,67.033L68.829,59.862z"/>
<path fill="none" stroke="#000000" stroke-width="2" stroke-linecap="round" stroke-linejoin="round" stroke-miterlimit="10" d="
	M48.105,24c7.139,0,14.278,2.722,19.725,8.17C73.28,37.619,76,44.757,76,51.896c0-7.138-2.72-14.277-8.17-19.725
	C62.383,26.722,55.244,24,48.105,24z"/>
<path fill="none" stroke="#000000" stroke-width="2" stroke-linecap="round" stroke-linejoin="round" stroke-miterlimit="10" d="
	M48.105,31.608c5.193,0,10.386,1.981,14.344,5.94c3.965,3.963,5.945,9.156,5.943,14.345c0.002-5.189-1.979-10.382-5.943-14.345
	C58.491,33.589,53.298,31.608,48.105,31.608z"/>
<path fill="none" stroke="#000000" stroke-width="2" stroke-linecap="round" stroke-linejoin="round" stroke-miterlimit="10" d="
	M48.107,39.215c3.244,0,6.487,1.237,8.964,3.714c2.475,2.475,3.714,5.721,3.715,8.964c-0.001-3.243-1.24-6.489-3.715-8.964
	C54.594,40.453,51.351,39.215,48.107,39.215z"/>
</svg>
