<?xml version="1.0" encoding="utf-8"?>
<!-- Generator: Adobe Illustrator 16.0.0, SVG Export Plug-In . SVG Version: 6.00 Build 0)  -->
<!DOCTYPE svg PUBLIC "-//W3C//DTD SVG 1.0//EN" "http://www.w3.org/TR/2001/REC-SVG-20010904/DTD/svg10.dtd">
<svg version="1.0" id="Layer_1" xmlns="http://www.w3.org/2000/svg" xmlns:xlink="http://www.w3.org/1999/xlink" x="0px" y="0px"
	 width="100px" height="100px" viewBox="0 0 100 100" enable-background="new 0 0 100 100" xml:space="preserve">
<path fill="none" stroke="#000000" stroke-width="2" stroke-linecap="round" stroke-linejoin="round" stroke-miterlimit="10" d="
	M86.487,18.5l-8.498-8.499L77.986,10c-10.014,4.147-17.397,11.963-21.239,21.245l4.246,4.251c3.318,3.314,7.672,4.972,12.019,4.976
	c0.003,17.969-14.569,32.54-32.541,32.54c0-4.347-1.659-8.698-4.976-12.017l-4.252-4.248v-0.003
	C21.226,60.893,13.844,68.705,10,77.991l8.499,8.496c3.649,3.648,9.055,4.451,13.487,2.426c30.866-1.282,55.655-26.066,56.93-56.93
	C90.936,27.552,90.138,22.15,86.487,18.5z"/>
</svg>
