<?xml version="1.0" encoding="utf-8"?>
<!-- Generator: Adobe Illustrator 16.0.0, SVG Export Plug-In . SVG Version: 6.00 Build 0)  -->
<!DOCTYPE svg PUBLIC "-//W3C//DTD SVG 1.0//EN" "http://www.w3.org/TR/2001/REC-SVG-20010904/DTD/svg10.dtd">
<svg version="1.0" id="Layer_1" xmlns="http://www.w3.org/2000/svg" xmlns:xlink="http://www.w3.org/1999/xlink" x="0px" y="0px"
	 width="100px" height="100px" viewBox="0 0 100 100" enable-background="new 0 0 100 100" xml:space="preserve">
<path fill="none" stroke="#000000" stroke-width="2" stroke-linecap="round" stroke-linejoin="round" stroke-miterlimit="10" d="
	M37.261,63.561c6.049,6.045,6.049,15.853,0,21.901c-6.05,6.051-15.857,6.051-21.904,0L37.261,63.561z"/>
<rect x="19.849" y="56.343" transform="matrix(-0.7071 -0.7071 0.7071 -0.7071 -10.4474 139.3376)" fill="none" stroke="#000000" stroke-width="2" stroke-linecap="round" stroke-linejoin="round" stroke-miterlimit="10" width="7.571" height="30.98"/>
<path fill="none" stroke="#000000" stroke-width="2" stroke-linecap="round" stroke-linejoin="round" stroke-miterlimit="10" d="
	M63.557,37.265c6.05,6.045,15.854,6.048,21.906,0c6.05-6.054,6.046-15.861,0-21.907L63.557,37.265z"/>
<rect x="68.044" y="8.144" transform="matrix(-0.7073 -0.7069 0.7069 -0.7073 105.93 91.1287)" fill="none" stroke="#000000" stroke-width="2" stroke-linecap="round" stroke-linejoin="round" stroke-miterlimit="10" width="7.574" height="30.98"/>
<path fill="none" stroke="#000000" stroke-width="2" stroke-linecap="round" stroke-linejoin="round" stroke-miterlimit="10" d="
	M61.421,61.42c-6.212,6.213-12.905,11.644-19.957,16.306c-1.481,7-7.686,12.26-15.121,12.273
	c16.285-0.016,32.573-6.225,45.001-18.654C83.778,58.908,89.989,42.607,90,26.315c-0.003,7.452-5.268,13.667-12.278,15.148
	c-4.657,7.052-10.09,13.746-16.301,19.955V61.42z"/>
</svg>
