<?xml version="1.0" encoding="utf-8"?>
<!-- Generator: Adobe Illustrator 16.0.0, SVG Export Plug-In . SVG Version: 6.00 Build 0)  -->
<!DOCTYPE svg PUBLIC "-//W3C//DTD SVG 1.0//EN" "http://www.w3.org/TR/2001/REC-SVG-20010904/DTD/svg10.dtd">
<svg version="1.0" id="Layer_1" xmlns="http://www.w3.org/2000/svg" xmlns:xlink="http://www.w3.org/1999/xlink" x="0px" y="0px"
	 width="100px" height="100px" viewBox="0 0 100 100" enable-background="new 0 0 100 100" xml:space="preserve">
<path fill="none" stroke="#000000" stroke-width="2" stroke-linecap="round" stroke-linejoin="round" stroke-miterlimit="10" d="
	M50,33.999c0-4.419,3.582-8,8.001-8h22v-8.5c0-4.125-3.375-7.499-7.5-7.499H17.5c-4.124,0-7.5,3.374-7.5,7.499v45.002
	c0,4.125,3.376,7.5,7.5,7.5H50V33.999z"/>
<path fill="none" stroke="#000000" stroke-width="2" stroke-linecap="round" stroke-linejoin="round" stroke-miterlimit="10" d="
	M50,74.001c0,2.207,1.792,4,4.001,4H86c2.211,0,4-1.793,4-4.002V37.998c0-2.208-1.791-3.999-4-3.999H54c-2.209,0-4,1.791-4,3.999
	V74.001z"/>
<path fill="none" stroke="#000000" stroke-width="2" stroke-linecap="round" stroke-linejoin="round" stroke-miterlimit="10" d="
	M67.002,83.999H73H67.002z"/>
<path fill="none" stroke="#000000" stroke-width="2" stroke-linecap="round" stroke-linejoin="round" stroke-miterlimit="10" d="
	M86,78.001H54.002c-2.207,0-3.999-1.789-4.001-3.996v7.992C50,86.418,53.582,90,58.002,90L82,89.996c4.42,0,8-3.576,8-7.993v-8.004
	C90,76.208,88.211,78.001,86,78.001z"/>
<path fill="none" stroke="#000000" stroke-width="2" stroke-linecap="round" stroke-linejoin="round" stroke-miterlimit="10" d="
	M82.002,25.999h-24c-4.42,0-8.001,3.581-8.001,8v3.999c0-2.208,1.791-3.999,4-3.999h32c2.209,0,4,1.791,4,3.999v-3.999
	C90,29.58,86.42,25.999,82.002,25.999z"/>
</svg>
