<?xml version="1.0" encoding="utf-8"?>
<!-- Generator: Adobe Illustrator 16.0.0, SVG Export Plug-In . SVG Version: 6.00 Build 0)  -->
<!DOCTYPE svg PUBLIC "-//W3C//DTD SVG 1.0//EN" "http://www.w3.org/TR/2001/REC-SVG-20010904/DTD/svg10.dtd">
<svg version="1.0" id="Layer_1" xmlns="http://www.w3.org/2000/svg" xmlns:xlink="http://www.w3.org/1999/xlink" x="0px" y="0px"
	 width="100px" height="100px" viewBox="0 0 100 100" enable-background="new 0 0 100 100" xml:space="preserve">
<path fill="none" stroke="#000000" stroke-width="2" stroke-linecap="round" stroke-linejoin="round" stroke-miterlimit="10" d="
	M73.943,33.231c0.002,22.487-18.228,40.713-40.711,40.713l1.297-5.842c0.193-0.856-0.16-2.069-0.782-2.69l-2.258-2.26
	c-0.623-0.621-1.699-0.691-2.394-0.148L11.263,76.869C10.568,77.41,10,78.571,10,79.45l0.002,1.325c0,0.883,0.508,2.11,1.129,2.731
	L17.625,90C57.602,90.002,90.004,57.6,90,17.629l-6.495-6.497c-0.621-0.621-1.85-1.128-2.729-1.128L79.45,10
	c-0.879,0-2.042,0.57-2.58,1.265l-13.869,17.83c-0.539,0.695-0.472,1.772,0.149,2.393l2.262,2.259
	c0.62,0.625,1.834,0.974,2.69,0.787L73.943,33.231z"/>
</svg>
